<svg xmlns="http://www.w3.org/2000/svg" width="820" height="539" viewBox="0 0 820 539"><g transform="translate(-600 -2347)"><rect width="820" height="539" transform="translate(600 2347)" fill="#f3f9ff"/><rect width="190" height="178" transform="translate(915 2372)" fill="#fff"/><path d="M1,1V177H189V1H1M0,0H190V178H0Z" transform="translate(915 2372)" fill="#12263f"/><rect width="190" height="178" transform="translate(915 2683)" fill="#fff"/><path d="M1,1V177H189V1H1M0,0H190V178H0Z" transform="translate(915 2683)" fill="#12263f"/><rect width="190" height="43" transform="translate(915 2599)" fill="#fff"/><path d="M1,1V42H189V1H1M0,0H190V43H0Z" transform="translate(915 2599)" fill="#12263f"/><rect width="139" height="43" transform="translate(620 2372)" fill="#fff"/><path d="M1,1V42H138V1H1M0,0H139V43H0Z" transform="translate(620 2372)" fill="#12263f"/><rect width="139" height="43" transform="translate(1258.4 2372)" fill="#fff"/><path d="M1,1V42H138V1H1M0,0H139V43H0Z" transform="translate(1258.4 2372)" fill="#12263f"/><rect width="139" height="64" transform="translate(620 2797)" fill="#fff"/><path d="M1,1V63H138V1H1M0,0H139V64H0Z" transform="translate(620 2797)" fill="#12263f"/><rect width="139" height="64" transform="translate(1258.4 2797)" fill="#fff"/><path d="M1,1V63H138V1H1M0,0H139V64H0Z" transform="translate(1258.4 2797)" fill="#12263f"/><rect width="139" height="43" transform="translate(620 2732)" fill="#fff"/><path d="M1,1V42H138V1H1M0,0H139V43H0Z" transform="translate(620 2732)" fill="#12263f"/><rect width="139" height="43" transform="translate(1258.4 2732)" fill="#fff"/><path d="M1,1V42H138V1H1M0,0H139V43H0Z" transform="translate(1258.4 2732)" fill="#12263f"/><rect width="139" height="43" transform="translate(620 2438)" fill="#fff"/><path d="M1,1V42H138V1H1M0,0H139V43H0Z" transform="translate(620 2438)" fill="#12263f"/><rect width="139" height="43" transform="translate(1258.4 2438)" fill="#fff"/><path d="M1,1V42H138V1H1M0,0H139V43H0Z" transform="translate(1258.4 2438)" fill="#12263f"/><rect width="139" height="43" transform="translate(620 2599)" fill="#fff"/><path d="M1,1V42H138V1H1M0,0H139V43H0Z" transform="translate(620 2599)" fill="#12263f"/><rect width="139" height="43" transform="translate(1258.4 2599)" fill="#fff"/><path d="M1,1V42H138V1H1M0,0H139V43H0Z" transform="translate(1258.4 2599)" fill="#12263f"/><path d="M52.25,17H49.578L51.555,5.625h2.664Zm5.6-8.461-.18,1.016a3,3,0,0,1,2.445-1.172,2.018,2.018,0,0,1,1.746.871,3.646,3.646,0,0,1,.418,2.426L61.391,17H58.813l.9-5.342a2.763,2.763,0,0,0,.016-.5q-.055-.743-.875-.743a1.606,1.606,0,0,0-1.242.6L56.555,17h-2.57l1.469-8.453Zm13.367,4.242a7.022,7.022,0,0,1-.7,2.363,3.865,3.865,0,0,1-1.316,1.539,3.037,3.037,0,0,1-1.754.48,2.3,2.3,0,0,1-1.8-.875l-.766,3.961H62.32l2.031-11.7,2.375-.008-.133.8A2.485,2.485,0,0,1,68.6,8.391a2.366,2.366,0,0,1,1.926.883,3.9,3.9,0,0,1,.738,2.367A9.133,9.133,0,0,1,71.219,12.781Zm-2.5-1.047q-.039-1.289-.875-1.312a1.515,1.515,0,0,0-1.352.664l-.6,3.352a1.043,1.043,0,0,0,1.078.7q1.367.023,1.68-2.352Q68.719,12.031,68.719,11.734Zm8.188,4.344a2.8,2.8,0,0,1-2.281,1.086,2.215,2.215,0,0,1-1.871-.867,3.2,3.2,0,0,1-.488-2.281l.914-5.469h2.57l-.93,5.507a1.835,1.835,0,0,0,0,.415.68.68,0,0,0,.758.665,1.661,1.661,0,0,0,1.383-.641l1.047-5.945h2.586L79.125,17H76.734Zm8.422-9.633-.367,2.1h1.352l-.32,1.828H84.641l-.656,3.883a1.035,1.035,0,0,0,.051.6q.105.2.527.219a6.109,6.109,0,0,0,.672-.039l-.187,1.906a4.154,4.154,0,0,1-1.383.2,2.278,2.278,0,0,1-1.789-.7,2.4,2.4,0,0,1-.484-1.867l.688-4.2H81.031l.313-1.828h1.047l.367-2.1ZM86.68,17.977H84.766L90.672,5.625h1.922Zm9.57-.82a3.853,3.853,0,0,1-2.844-1.172A4.773,4.773,0,0,1,92.2,12.953a8.665,8.665,0,0,1,.148-2.207,7.754,7.754,0,0,1,.8-2.34,5.889,5.889,0,0,1,1.445-1.781,4.943,4.943,0,0,1,3.344-1.156A4.112,4.112,0,0,1,99.973,6a3.733,3.733,0,0,1,1.395,1.473,5.289,5.289,0,0,1,.609,2.188,8.966,8.966,0,0,1-.105,1.973,8.13,8.13,0,0,1-.617,2.109,6.447,6.447,0,0,1-1.16,1.77,5.337,5.337,0,0,1-1.676,1.215A4.847,4.847,0,0,1,96.25,17.156ZM99.3,9.641q-.078-1.953-1.516-2.031a2.092,2.092,0,0,0-1.836.879,5.642,5.642,0,0,0-.961,2.754,9.614,9.614,0,0,0-.109,1.742q.078,1.984,1.531,2.039a2.029,2.029,0,0,0,1.641-.684,4.422,4.422,0,0,0,.992-2.125A10.208,10.208,0,0,0,99.3,9.641Zm8.164,6.438a2.8,2.8,0,0,1-2.281,1.086,2.215,2.215,0,0,1-1.871-.867,3.2,3.2,0,0,1-.488-2.281l.914-5.469h2.57l-.93,5.507a1.835,1.835,0,0,0,0,.415.68.68,0,0,0,.758.665,1.661,1.661,0,0,0,1.383-.641l1.047-5.945h2.586L109.68,17h-2.391Zm8.422-9.633-.367,2.1h1.352l-.32,1.828H115.2l-.656,3.883a1.035,1.035,0,0,0,.051.6q.105.2.527.219a6.109,6.109,0,0,0,.672-.039l-.187,1.906a4.154,4.154,0,0,1-1.383.2,2.278,2.278,0,0,1-1.789-.7,2.4,2.4,0,0,1-.484-1.867l.688-4.2h-1.047l.313-1.828h1.047l.367-2.1Zm8.938,6.336a7.022,7.022,0,0,1-.7,2.363,3.865,3.865,0,0,1-1.316,1.539,3.037,3.037,0,0,1-1.754.48,2.3,2.3,0,0,1-1.8-.875l-.766,3.961h-2.57l2.031-11.7,2.375-.008-.133.8a2.485,2.485,0,0,1,2.008-.953,2.366,2.366,0,0,1,1.926.883,3.9,3.9,0,0,1,.738,2.367A9.133,9.133,0,0,1,124.82,12.781Zm-2.5-1.047q-.039-1.289-.875-1.312a1.515,1.515,0,0,0-1.352.664l-.6,3.352a1.043,1.043,0,0,0,1.078.7q1.367.023,1.68-2.352Q122.32,12.031,122.32,11.734Zm8.188,4.344a2.8,2.8,0,0,1-2.281,1.086,2.215,2.215,0,0,1-1.871-.867,3.2,3.2,0,0,1-.488-2.281l.914-5.469h2.57l-.93,5.507a1.835,1.835,0,0,0,0,.415.68.68,0,0,0,.758.665,1.661,1.661,0,0,0,1.383-.641l1.047-5.945H134.2L132.727,17h-2.391Zm8.422-9.633-.367,2.1h1.352l-.32,1.828h-1.352l-.656,3.883a1.035,1.035,0,0,0,.051.6q.105.2.527.219a6.109,6.109,0,0,0,.672-.039l-.187,1.906a4.154,4.154,0,0,1-1.383.2,2.278,2.278,0,0,1-1.789-.7,2.4,2.4,0,0,1-.484-1.867l.688-4.2h-1.047l.313-1.828h1.047l.367-2.1Z" transform="translate(915 2383)" fill="#12263f"/><path d="M40.023,17H37.438L34.719,9.82,33.469,17H30.8L32.766,5.625h2.609l2.711,7.18,1.242-7.18H42Zm5.836.156a3.929,3.929,0,0,1-2.02-.535,3.372,3.372,0,0,1-1.34-1.469,3.946,3.946,0,0,1-.359-2.074l.023-.219a5.182,5.182,0,0,1,1.449-3.3,4.009,4.009,0,0,1,3.035-1.168,3.269,3.269,0,0,1,1.859.552,3.082,3.082,0,0,1,1.133,1.479,4.529,4.529,0,0,1,.234,2.117l-.148,1.072H44.7a1.648,1.648,0,0,0,.375,1.078,1.377,1.377,0,0,0,1.047.438,2.66,2.66,0,0,0,2.008-.859L49.2,15.691a3.181,3.181,0,0,1-1.332,1.064,4.678,4.678,0,0,1-1.871.4Zm.625-6.734a1.322,1.322,0,0,0-.949.342,2.87,2.87,0,0,0-.7,1.2h2.57l.047-.225a1.715,1.715,0,0,0,.016-.513A.9.9,0,0,0,46.484,10.422Zm8.523-3.977-.367,2.1h1.352l-.32,1.828H54.32l-.656,3.883a1.035,1.035,0,0,0,.051.6q.105.2.527.219a6.109,6.109,0,0,0,.672-.039l-.187,1.906a4.154,4.154,0,0,1-1.383.2,2.278,2.278,0,0,1-1.789-.7,2.4,2.4,0,0,1-.484-1.867l.688-4.2H50.711l.313-1.828H52.07l.367-2.1Zm8.242,7.078,1.7-4.977h2.516L64.063,17H61.9l-.484-4.984L59.188,17h-2.18l-.469-8.453h2.414l-.078,5.031,2.164-5.031h1.789Zm8.617-5.133a3.55,3.55,0,0,1,1.961.566,3.191,3.191,0,0,1,1.215,1.535,4.737,4.737,0,0,1,.277,2.188l-.016.172a5.01,5.01,0,0,1-1.445,3.141,4.067,4.067,0,0,1-3.031,1.164,3.535,3.535,0,0,1-1.945-.559,3.211,3.211,0,0,1-1.215-1.52,4.6,4.6,0,0,1-.285-2.172,5.211,5.211,0,0,1,1.426-3.312A4.041,4.041,0,0,1,71.867,8.391ZM69.953,12.91l-.023.46q-.109,1.739,1.063,1.771,1.516.047,1.758-2.457l.031-.71a1.916,1.916,0,0,0-.262-1.119.954.954,0,0,0-.816-.433A1.344,1.344,0,0,0,70.535,11,3.8,3.8,0,0,0,69.953,12.91Zm11.883-1.98a7.354,7.354,0,0,0-.8-.078,1.985,1.985,0,0,0-1.766.8L78.32,17H75.75l1.469-8.453,2.4-.008-.2,1.109a2.347,2.347,0,0,1,1.953-1.281,3.683,3.683,0,0,1,.8.109Zm3.781,2.953-.937.813-.4,2.3h-2.57L83.8,4.992h2.57L85.18,11.4l.313-.375,2.336-2.477h3.258l-3.594,3.594L89.672,17h-2.82ZM96.914,17H94.336L95.8,8.547h2.578ZM96.031,6.414a1.192,1.192,0,0,1,.4-.953,1.444,1.444,0,0,1,1.012-.383,1.491,1.491,0,0,1,1,.344,1.172,1.172,0,0,1,.418.9,1.194,1.194,0,0,1-.4.957,1.449,1.449,0,0,1-1.016.379,1.51,1.51,0,0,1-1-.34A1.158,1.158,0,0,1,96.031,6.414Zm6.328,2.125-.18,1.016a3,3,0,0,1,2.445-1.172,2.018,2.018,0,0,1,1.746.871,3.646,3.646,0,0,1,.418,2.426L105.9,17H103.32l.9-5.342a2.763,2.763,0,0,0,.016-.5q-.055-.743-.875-.743a1.606,1.606,0,0,0-1.242.6L101.063,17h-2.57l1.469-8.453ZM112.2,6.445l-.367,2.1h1.352l-.32,1.828h-1.352l-.656,3.883a1.035,1.035,0,0,0,.051.6q.105.2.527.219a6.109,6.109,0,0,0,.672-.039l-.187,1.906a4.154,4.154,0,0,1-1.383.2,2.278,2.278,0,0,1-1.789-.7,2.4,2.4,0,0,1-.484-1.867l.688-4.2H107.9l.313-1.828h1.047l.367-2.1Zm4.789,10.711a3.929,3.929,0,0,1-2.02-.535,3.372,3.372,0,0,1-1.34-1.469,3.946,3.946,0,0,1-.359-2.074l.023-.219a5.182,5.182,0,0,1,1.449-3.3,4.009,4.009,0,0,1,3.035-1.168,3.269,3.269,0,0,1,1.859.552,3.082,3.082,0,0,1,1.133,1.479A4.529,4.529,0,0,1,121,12.537l-.148,1.072H115.82a1.648,1.648,0,0,0,.375,1.078,1.377,1.377,0,0,0,1.047.438,2.66,2.66,0,0,0,2.008-.859l1.078,1.426A3.181,3.181,0,0,1,119,16.755a4.678,4.678,0,0,1-1.871.4Zm.625-6.734a1.322,1.322,0,0,0-.949.342,2.87,2.87,0,0,0-.7,1.2h2.57l.047-.225a1.715,1.715,0,0,0,.016-.513A.9.9,0,0,0,117.609,10.422Zm9.8.508a7.354,7.354,0,0,0-.8-.078,1.985,1.985,0,0,0-1.766.8L123.9,17h-2.57L122.8,8.547l2.4-.008L125,9.648a2.347,2.347,0,0,1,1.953-1.281,3.683,3.683,0,0,1,.8.109Zm.578,6.07,1.148-6.625h-1.187l.313-1.828,1.188-.008.1-.742a3.45,3.45,0,0,1,1.078-2.148,3.5,3.5,0,0,1,2.461-.828,7.577,7.577,0,0,1,1.273.172l-.2,1.953a2.485,2.485,0,0,0-.609-.094,1.6,1.6,0,0,0-.941.26,1.166,1.166,0,0,0-.473.75l-.117.684h1.6l-.312,1.828h-1.6L130.57,17Zm9.906,0a2.292,2.292,0,0,1-.109-.766,2.608,2.608,0,0,1-2.07.922,2.548,2.548,0,0,1-1.828-.734,2.207,2.207,0,0,1-.68-1.742,2.48,2.48,0,0,1,1.148-2.113,5.414,5.414,0,0,1,3.031-.738l.859.016.094-.477.031-.414a.671.671,0,0,0-.711-.734.988.988,0,0,0-1.039.93l-2.578.008a2.448,2.448,0,0,1,.555-1.48,3.288,3.288,0,0,1,1.4-.969,4.9,4.9,0,0,1,1.887-.316,3.778,3.778,0,0,1,1.684.4,2.506,2.506,0,0,1,1.082,1.055,2.694,2.694,0,0,1,.273,1.559l-.633,3.977-.039.484a2.135,2.135,0,0,0,.148.984L140.4,17Zm-1.469-1.7a1.658,1.658,0,0,0,1.383-.7l.258-1.359-.664-.008a1.75,1.75,0,0,0-1.062.363,1.378,1.378,0,0,0-.523.949.692.692,0,0,0,.121.527A.619.619,0,0,0,136.43,15.3Zm8.93-.172a1.106,1.106,0,0,0,.867-.306,1.526,1.526,0,0,0,.4-.834l2.406-.008a3.163,3.163,0,0,1-.551,1.664,3.328,3.328,0,0,1-1.359,1.137,4.019,4.019,0,0,1-1.832.379,3.173,3.173,0,0,1-2.6-1.215,4.2,4.2,0,0,1-.742-3.059l.023-.187a5.663,5.663,0,0,1,.719-2.27,4.112,4.112,0,0,1,1.52-1.527,3.941,3.941,0,0,1,2.105-.508,3.143,3.143,0,0,1,2.332.941,3.338,3.338,0,0,1,.824,2.457l-2.406-.008q.039-1.336-.961-1.359-1.359-.047-1.562,2.281l-.07.794-.008.3Q144.461,15.1,145.359,15.125Zm8.43,2.031a3.929,3.929,0,0,1-2.02-.535,3.372,3.372,0,0,1-1.34-1.469,3.947,3.947,0,0,1-.359-2.074l.023-.219a5.182,5.182,0,0,1,1.449-3.3,4.009,4.009,0,0,1,3.035-1.168,3.269,3.269,0,0,1,1.859.552,3.082,3.082,0,0,1,1.133,1.479,4.529,4.529,0,0,1,.234,2.117l-.148,1.072h-5.031A1.648,1.648,0,0,0,153,14.688a1.377,1.377,0,0,0,1.047.438,2.66,2.66,0,0,0,2.008-.859l1.078,1.426a3.181,3.181,0,0,1-1.332,1.064,4.678,4.678,0,0,1-1.871.4Zm.625-6.734a1.322,1.322,0,0,0-.949.342,2.87,2.87,0,0,0-.7,1.2h2.57l.047-.225a1.715,1.715,0,0,0,.016-.513A.9.9,0,0,0,154.414,10.422Z" transform="translate(915 2694)" fill="#12263f"/><path d="M38.055,15.359a.846.846,0,0,1,.633.234.807.807,0,0,1,.242.625.844.844,0,0,1-.258.621.929.929,0,0,1-.625.254.788.788,0,0,1-.859-.828.874.874,0,0,1,.867-.906Zm1.2-6.9a.846.846,0,0,1,.633.234.807.807,0,0,1,.242.625.844.844,0,0,1-.258.621.929.929,0,0,1-.625.254.788.788,0,0,1-.859-.828.874.874,0,0,1,.867-.906Zm5.727-2.836,1.992,9.266,5.219-9.266h1.93L52.141,17H50.68l.781-4.5.93-4.578L47.234,17H46.109L44.078,7.742l-.7,4.906L42.617,17H41.148L43.125,5.625ZM59.25,8.391a3.047,3.047,0,0,1,1.82.578,3.285,3.285,0,0,1,1.121,1.551,4.8,4.8,0,0,1,.246,2.16l-.016.172a5.685,5.685,0,0,1-.734,2.23,4.309,4.309,0,0,1-1.516,1.551,3.7,3.7,0,0,1-2.039.523,3.052,3.052,0,0,1-1.816-.578A3.21,3.21,0,0,1,55.2,15.047a4.931,4.931,0,0,1-.25-2.133,5.76,5.76,0,0,1,.711-2.359,4.409,4.409,0,0,1,1.527-1.621A3.652,3.652,0,0,1,59.25,8.391Zm-2.875,4.531a4.8,4.8,0,0,0,0,1.023,2.507,2.507,0,0,0,.551,1.469,1.653,1.653,0,0,0,1.262.57,2.253,2.253,0,0,0,1.3-.348,2.919,2.919,0,0,0,1-1.121,4.721,4.721,0,0,0,.523-1.664,7.494,7.494,0,0,0,.023-1.211,2.6,2.6,0,0,0-.57-1.492A1.69,1.69,0,0,0,59.2,9.57a2.3,2.3,0,0,0-1.859.859,4.245,4.245,0,0,0-.945,2.313ZM67.219,6.5l-.359,2.047H68.4l-.2,1.117H66.672l-.883,5.258a1.833,1.833,0,0,0-.008.375.6.6,0,0,0,.664.609,4.05,4.05,0,0,0,.688-.078l-.109,1.18a3.847,3.847,0,0,1-1.031.141,1.476,1.476,0,0,1-1.266-.621A2.4,2.4,0,0,1,64.4,14.9l.859-5.234H63.766l.2-1.117h1.492L65.813,6.5Zm4.055,3.078A3.275,3.275,0,0,1,73.828,8.4a2.058,2.058,0,0,1,1.762.816,3.217,3.217,0,0,1,.426,2.246L75.094,17H73.68l.93-5.562a2.968,2.968,0,0,0,.008-.711,1.168,1.168,0,0,0-1.289-1.117,2.6,2.6,0,0,0-2.234,1.359L70.047,17H68.633L70.719,5h1.414Zm9.641,7.578a3.048,3.048,0,0,1-2.469-1.164,4.006,4.006,0,0,1-.75-2.9l.039-.336a5.624,5.624,0,0,1,.746-2.3,4.339,4.339,0,0,1,1.5-1.566,3.491,3.491,0,0,1,1.906-.5,2.688,2.688,0,0,1,2.047.867,3.566,3.566,0,0,1,.813,2.266,6.62,6.62,0,0,1-.031,1.016l-.086.648H79.1a2.856,2.856,0,0,0,.379,1.953,1.8,1.8,0,0,0,1.551.836,3.007,3.007,0,0,0,2.313-1.125l.813.688a3.718,3.718,0,0,1-1.371,1.2A3.886,3.886,0,0,1,80.914,17.156Zm.9-7.586a2.066,2.066,0,0,0-1.527.594A4.22,4.22,0,0,0,79.25,12l4.109.008.031-.125a2.313,2.313,0,0,0-.316-1.637A1.488,1.488,0,0,0,81.813,9.57Zm9,.266-.664-.07a2.42,2.42,0,0,0-2.141,1.227L86.969,17H85.555l1.469-8.453,1.367-.008-.211.984A2.527,2.527,0,0,1,90.3,8.375a2.594,2.594,0,0,1,.672.117Zm7.742,2.977a6.586,6.586,0,0,1-.711,2.336A3.982,3.982,0,0,1,96.5,16.688a3.058,3.058,0,0,1-1.75.477,2.61,2.61,0,0,1-2.273-1.148L92.188,17h-1.3L92.969,5h1.414l-.852,4.484A3.107,3.107,0,0,1,96,8.391a2.358,2.358,0,0,1,1.9.9,3.954,3.954,0,0,1,.719,2.391,7.362,7.362,0,0,1-.047.969ZM97.211,12a3.009,3.009,0,0,0-.383-1.744,1.465,1.465,0,0,0-1.242-.636,2.574,2.574,0,0,0-2.234,1.327l-.633,3.675a1.8,1.8,0,0,0,1.758,1.319,2.054,2.054,0,0,0,1.449-.492,3.212,3.212,0,0,0,.941-1.463A6.578,6.578,0,0,0,97.211,12Zm7.156-3.606a3.047,3.047,0,0,1,1.82.578,3.285,3.285,0,0,1,1.121,1.551,4.8,4.8,0,0,1,.246,2.16l-.016.172a5.685,5.685,0,0,1-.734,2.23,4.309,4.309,0,0,1-1.516,1.551,3.7,3.7,0,0,1-2.039.523,3.052,3.052,0,0,1-1.816-.578,3.21,3.21,0,0,1-1.113-1.531,4.931,4.931,0,0,1-.25-2.133,5.76,5.76,0,0,1,.711-2.359,4.409,4.409,0,0,1,1.527-1.621A3.652,3.652,0,0,1,104.367,8.391Zm-2.875,4.531a4.8,4.8,0,0,0,0,1.023,2.507,2.507,0,0,0,.551,1.469,1.653,1.653,0,0,0,1.262.57,2.253,2.253,0,0,0,1.3-.348,2.919,2.919,0,0,0,1-1.121,4.721,4.721,0,0,0,.523-1.664,7.5,7.5,0,0,0,.023-1.211,2.6,2.6,0,0,0-.57-1.492,1.69,1.69,0,0,0-1.266-.578,2.3,2.3,0,0,0-1.859.859,4.245,4.245,0,0,0-.945,2.313ZM113.773,17a1.893,1.893,0,0,1-.055-.445l.023-.445a3.465,3.465,0,0,1-2.469,1.047,2.526,2.526,0,0,1-1.816-.707,2.14,2.14,0,0,1-.637-1.73,2.6,2.6,0,0,1,1.176-2.1,5.005,5.005,0,0,1,2.887-.754l1.477.008.094-.672a1.545,1.545,0,0,0-.293-1.2,1.414,1.414,0,0,0-1.113-.457,2.181,2.181,0,0,0-1.285.355,1.513,1.513,0,0,0-.684.98l-1.422.008a2.266,2.266,0,0,1,.578-1.316,3.363,3.363,0,0,1,1.3-.891,4.215,4.215,0,0,1,1.648-.3,2.8,2.8,0,0,1,2.055.8,2.484,2.484,0,0,1,.617,2.043l-.687,4.188-.039.6a2.949,2.949,0,0,0,.094.852l-.016.133Zm-2.219-1.094a2.466,2.466,0,0,0,1.285-.324,3.254,3.254,0,0,0,1.043-.941l.3-1.742-1.07-.008a4.054,4.054,0,0,0-2.047.422,1.554,1.554,0,0,0-.8,1.2,1.21,1.21,0,0,0,.277.988A1.321,1.321,0,0,0,111.555,15.906Zm10.828-6.07-.664-.07a2.42,2.42,0,0,0-2.141,1.227L118.539,17h-1.414l1.469-8.453,1.367-.008-.211.984a2.527,2.527,0,0,1,2.117-1.148,2.594,2.594,0,0,1,.672.117Zm.477,2.922a6.578,6.578,0,0,1,.711-2.328,4.03,4.03,0,0,1,1.367-1.555,3.127,3.127,0,0,1,1.789-.492A2.64,2.64,0,0,1,128.9,9.414L129.711,5h1.414l-2.078,12h-1.289l.148-.906a3.116,3.116,0,0,1-2.469,1.063,2.335,2.335,0,0,1-1.867-.918,4,4,0,0,1-.75-2.379A7.6,7.6,0,0,1,122.859,12.758Zm1.359.808a2.929,2.929,0,0,0,.4,1.732,1.437,1.437,0,0,0,1.234.632,2.554,2.554,0,0,0,2.18-1.233l.672-3.9A1.754,1.754,0,0,0,127,9.609a2.143,2.143,0,0,0-1.473.5,3.256,3.256,0,0,0-.969,1.475A6.082,6.082,0,0,0,124.219,13.565Zm15.82-8.378h-1.445L136.555,18.25h1.453l-.187,1.188h-2.867L137.359,4h2.875ZM143.875,17h-1.422l1.672-9.594L141.1,8.469l.242-1.375,4.219-1.523h.25ZM149.32,4H152.2l-2.414,15.438h-2.875l.188-1.187h1.461l2.039-13.062h-1.469Z" transform="translate(915 2610)" fill="#12263f"/><path d="M39.992,16.242a.905.905,0,0,1,.223-.625.848.848,0,0,1,.668-.25.874.874,0,0,1,.676.25.887.887,0,0,1,.23.625.839.839,0,0,1-.23.6.89.89,0,0,1-.676.242.8.8,0,0,1-.891-.844ZM40,9.344a.905.905,0,0,1,.223-.625.848.848,0,0,1,.668-.25.874.874,0,0,1,.676.25.887.887,0,0,1,.23.625.839.839,0,0,1-.23.6.89.89,0,0,1-.676.242A.8.8,0,0,1,40,9.344ZM44.141,17V5.625h3.719a4.317,4.317,0,0,1,2.785.766,2.759,2.759,0,0,1,.934,2.266,2.31,2.31,0,0,1-.453,1.41,2.937,2.937,0,0,1-1.234.949,2.638,2.638,0,0,1,1.457.98,2.814,2.814,0,0,1,.535,1.723,3.042,3.042,0,0,1-.992,2.406,4.1,4.1,0,0,1-2.8.875Zm1.5-5.32v4.094h2.477a2.385,2.385,0,0,0,1.652-.543,1.907,1.907,0,0,0,.605-1.5q0-2.055-2.234-2.055Zm0-1.2h2.266a2.375,2.375,0,0,0,1.574-.493,1.654,1.654,0,0,0,.59-1.339,1.626,1.626,0,0,0-.547-1.366,2.686,2.686,0,0,0-1.664-.427H45.641ZM55.711,17h-1.5V5.625h1.5ZM67.2,11.68a7.037,7.037,0,0,1-.562,2.918,4.261,4.261,0,0,1-1.594,1.9,4.4,4.4,0,0,1-6.4-1.887,6.752,6.752,0,0,1-.59-2.832v-.82a6.953,6.953,0,0,1,.57-2.9,4.218,4.218,0,0,1,4-2.594,4.41,4.41,0,0,1,2.41.66,4.253,4.253,0,0,1,1.605,1.914,7.071,7.071,0,0,1,.563,2.918Zm-1.492-.734A5.1,5.1,0,0,0,64.9,7.84a2.68,2.68,0,0,0-2.273-1.082A2.651,2.651,0,0,0,60.387,7.84a5,5,0,0,0-.84,3v.836a5.107,5.107,0,0,0,.824,3.082,2.888,2.888,0,0,0,4.52.063,5.079,5.079,0,0,0,.82-3.035Zm7.094.984A7.053,7.053,0,0,1,70,10.566a2.6,2.6,0,0,1-.879-2,2.751,2.751,0,0,1,1.074-2.223,4.269,4.269,0,0,1,2.793-.879,4.66,4.66,0,0,1,2.09.453A3.436,3.436,0,0,1,76.5,7.172,3.2,3.2,0,0,1,77,8.914H75.492a2.08,2.08,0,0,0-.656-1.627A2.669,2.669,0,0,0,72.984,6.7a2.732,2.732,0,0,0-1.73.489,1.632,1.632,0,0,0-.621,1.358,1.468,1.468,0,0,0,.59,1.178,5.785,5.785,0,0,0,2.008.88,9.316,9.316,0,0,1,2.219.88A3.367,3.367,0,0,1,76.637,12.6a2.861,2.861,0,0,1,.387,1.508,2.658,2.658,0,0,1-1.078,2.215,4.6,4.6,0,0,1-2.883.832,5.347,5.347,0,0,1-2.187-.449,3.681,3.681,0,0,1-1.566-1.23,3,3,0,0,1-.551-1.773h1.508a1.959,1.959,0,0,0,.762,1.629,3.207,3.207,0,0,0,2.035.6,2.948,2.948,0,0,0,1.82-.484,1.573,1.573,0,0,0,.633-1.32,1.545,1.545,0,0,0-.586-1.293A6.755,6.755,0,0,0,72.8,11.93ZM85.672,5.188H84.18V18.25h1.492v1.188H82.727V4h2.945ZM91.523,17H90.07V7.367l-2.914,1.07V7.125L91.3,5.57h.227ZM94.883,4h2.953V19.438H94.883V18.25h1.508V5.188H94.883Z" transform="translate(620 2383)" fill="#12263f"/><path d="M12.16,16.242a.905.905,0,0,1,.223-.625.848.848,0,0,1,.668-.25.874.874,0,0,1,.676.25.887.887,0,0,1,.23.625.839.839,0,0,1-.23.6.89.89,0,0,1-.676.242.8.8,0,0,1-.891-.844Zm.008-6.9a.905.905,0,0,1,.223-.625.848.848,0,0,1,.668-.25.874.874,0,0,1,.676.25.887.887,0,0,1,.23.625.839.839,0,0,1-.23.6.89.89,0,0,1-.676.242.8.8,0,0,1-.891-.844Zm6.078-3.719,3.719,9.281,3.719-9.281h1.945V17h-1.5V12.57l.141-4.781L22.535,17H21.387L17.66,7.813l.148,4.758V17h-1.5V5.625ZM30.082,16.242a.905.905,0,0,1,.223-.625.848.848,0,0,1,.668-.25.874.874,0,0,1,.676.25.887.887,0,0,1,.23.625.839.839,0,0,1-.23.6.89.89,0,0,1-.676.242.8.8,0,0,1-.891-.844ZM41.566,17H34.113V15.961l3.938-4.375a9.355,9.355,0,0,0,1.207-1.613,2.693,2.693,0,0,0,.332-1.285,2.041,2.041,0,0,0-.539-1.461,1.885,1.885,0,0,0-1.437-.57,2.232,2.232,0,0,0-1.676.613,2.343,2.343,0,0,0-.6,1.707H33.895a3.355,3.355,0,0,1,1.012-2.539,3.751,3.751,0,0,1,2.707-.969,3.6,3.6,0,0,1,2.508.832,2.838,2.838,0,0,1,.922,2.215q0,1.68-2.141,4l-3.047,3.3h5.711Zm14.609,0H54.668L48.941,8.234V17H47.434V5.625h1.508l5.742,8.8v-8.8h1.492Zm6.43-1.992,3.25-9.383H67.5L63.277,17H61.949L57.738,5.625h1.633Zm8.352-9.383,3.719,9.281,3.719-9.281H80.34V17h-1.5V12.57l.141-4.781L75.246,17H74.1L70.371,7.813l.148,4.758V17h-1.5V5.625ZM86.27,17.156a3.693,3.693,0,0,1-2.8-1.129,4.19,4.19,0,0,1-1.078-3.02v-.266a5.073,5.073,0,0,1,.48-2.246,3.748,3.748,0,0,1,1.344-1.547,3.378,3.378,0,0,1,1.871-.559,3.166,3.166,0,0,1,2.563,1.086,4.7,4.7,0,0,1,.914,3.109v.6H83.84a3,3,0,0,0,.73,2.02,2.3,2.3,0,0,0,1.777.77,2.517,2.517,0,0,0,1.3-.312,3.259,3.259,0,0,0,.93-.828l.883.688A3.55,3.55,0,0,1,86.27,17.156Zm-.18-7.578a1.928,1.928,0,0,0-1.469.637A3.1,3.1,0,0,0,83.887,12h4.234v-.109a2.753,2.753,0,0,0-.594-1.707A1.815,1.815,0,0,0,86.09,9.578Zm12.1-4.391H96.7V18.25h1.492v1.188H95.246V4h2.945ZM104.043,17H102.59V7.367l-2.914,1.07V7.125l4.141-1.555h.227Zm4.414-.758a.905.905,0,0,1,.223-.625.848.848,0,0,1,.668-.25.874.874,0,0,1,.676.25.887.887,0,0,1,.23.625.839.839,0,0,1-.23.6.89.89,0,0,1-.676.242.8.8,0,0,1-.891-.844Zm4.211,0a.905.905,0,0,1,.223-.625.848.848,0,0,1,.668-.25.874.874,0,0,1,.676.25.887.887,0,0,1,.23.625.839.839,0,0,1-.23.6.89.89,0,0,1-.676.242.8.8,0,0,1-.891-.844Zm5.664-6.926-2.359-.7.359-1.178,2.359.874-.07-2.685h1.2l-.078,2.724,2.32-.859.359,1.186-2.4.71,1.547,2.117-.969.734-1.453-2.25-1.406,2.2-.977-.711ZM122.715,4h2.953V19.438h-2.953V18.25h1.508V5.188h-1.508Z" transform="translate(1259 2383)" fill="#12263f"/><path d="M30.535,16.242a.905.905,0,0,1,.223-.625.848.848,0,0,1,.668-.25.874.874,0,0,1,.676.25.887.887,0,0,1,.23.625.839.839,0,0,1-.23.6.89.89,0,0,1-.676.242.8.8,0,0,1-.891-.844Zm.008-6.9a.905.905,0,0,1,.223-.625.848.848,0,0,1,.668-.25.874.874,0,0,1,.676.25.887.887,0,0,1,.23.625.839.839,0,0,1-.23.6.89.89,0,0,1-.676.242.8.8,0,0,1-.891-.844Zm7.492,2.586a7.053,7.053,0,0,1-2.809-1.363,2.6,2.6,0,0,1-.879-2,2.751,2.751,0,0,1,1.074-2.223,4.269,4.269,0,0,1,2.793-.879,4.66,4.66,0,0,1,2.09.453,3.436,3.436,0,0,1,1.422,1.25,3.2,3.2,0,0,1,.5,1.742H40.723a2.08,2.08,0,0,0-.656-1.627A2.669,2.669,0,0,0,38.215,6.7a2.732,2.732,0,0,0-1.73.489,1.632,1.632,0,0,0-.621,1.358,1.468,1.468,0,0,0,.59,1.178,5.785,5.785,0,0,0,2.008.88,9.316,9.316,0,0,1,2.219.88A3.367,3.367,0,0,1,41.867,12.6a2.861,2.861,0,0,1,.387,1.508,2.658,2.658,0,0,1-1.078,2.215,4.6,4.6,0,0,1-2.883.832,5.347,5.347,0,0,1-2.187-.449,3.681,3.681,0,0,1-1.566-1.23,3,3,0,0,1-.551-1.773H35.5a1.959,1.959,0,0,0,.762,1.629,3.207,3.207,0,0,0,2.035.6,2.948,2.948,0,0,0,1.82-.484,1.573,1.573,0,0,0,.633-1.32,1.545,1.545,0,0,0-.586-1.293A6.755,6.755,0,0,0,38.035,11.93Zm12.422,2.094H45.691L44.621,17H43.074L47.418,5.625H48.73L53.082,17H51.543ZM46.145,12.8h3.867l-1.937-5.32Zm11.82-.867a7.053,7.053,0,0,1-2.809-1.363,2.6,2.6,0,0,1-.879-2,2.751,2.751,0,0,1,1.074-2.223,4.269,4.269,0,0,1,2.793-.879,4.66,4.66,0,0,1,2.09.453,3.436,3.436,0,0,1,1.422,1.25,3.2,3.2,0,0,1,.5,1.742H60.652A2.08,2.08,0,0,0,60,7.287,2.669,2.669,0,0,0,58.145,6.7a2.732,2.732,0,0,0-1.73.489,1.632,1.632,0,0,0-.621,1.358,1.468,1.468,0,0,0,.59,1.178,5.785,5.785,0,0,0,2.008.88,9.316,9.316,0,0,1,2.219.88A3.367,3.367,0,0,1,61.8,12.6a2.861,2.861,0,0,1,.387,1.508,2.658,2.658,0,0,1-1.078,2.215,4.6,4.6,0,0,1-2.883.832,5.347,5.347,0,0,1-2.187-.449,3.681,3.681,0,0,1-1.566-1.23,3,3,0,0,1-.551-1.773h1.508a1.959,1.959,0,0,0,.762,1.629,3.207,3.207,0,0,0,2.035.6,2.948,2.948,0,0,0,1.82-.484,1.573,1.573,0,0,0,.633-1.32,1.545,1.545,0,0,0-.586-1.293A6.755,6.755,0,0,0,57.965,11.93Zm7.867-1.32h1.086a2.387,2.387,0,0,0,1.609-.539,1.8,1.8,0,0,0,.586-1.414,1.764,1.764,0,0,0-1.992-2,2.072,2.072,0,0,0-1.5.535,1.873,1.873,0,0,0-.559,1.418H63.621a2.9,2.9,0,0,1,.988-2.246,3.6,3.6,0,0,1,2.512-.895,3.558,3.558,0,0,1,2.523.852,3.076,3.076,0,0,1,.914,2.367,2.5,2.5,0,0,1-.48,1.438,2.9,2.9,0,0,1-1.309,1.039,2.8,2.8,0,0,1,1.449.984,2.734,2.734,0,0,1,.512,1.68,3.1,3.1,0,0,1-1,2.43,3.745,3.745,0,0,1-2.6.9,3.844,3.844,0,0,1-2.605-.867,2.877,2.877,0,0,1-1-2.289h1.453a1.859,1.859,0,0,0,.586,1.438,2.229,2.229,0,0,0,1.57.539,2.187,2.187,0,0,0,1.6-.547,2.108,2.108,0,0,0,.555-1.57,1.912,1.912,0,0,0-.609-1.523,2.655,2.655,0,0,0-1.758-.547H65.832ZM79.816,5.188H78.324V18.25h1.492v1.188H76.871V4h2.945ZM85.668,17H84.215V7.367L81.3,8.438V7.125L85.441,5.57h.227Zm4.414-.758a.905.905,0,0,1,.223-.625.848.848,0,0,1,.668-.25.874.874,0,0,1,.676.25.887.887,0,0,1,.23.625.839.839,0,0,1-.23.6.89.89,0,0,1-.676.242.8.8,0,0,1-.891-.844Zm4.211,0a.905.905,0,0,1,.223-.625.848.848,0,0,1,.668-.25.874.874,0,0,1,.676.25.887.887,0,0,1,.23.625.839.839,0,0,1-.23.6.89.89,0,0,1-.676.242.8.8,0,0,1-.891-.844Zm5.664-6.926-2.359-.7.359-1.178,2.359.874-.07-2.685h1.2l-.078,2.724,2.32-.859.359,1.186-2.4.71,1.547,2.117-.969.734-1.453-2.25-1.406,2.2-.977-.711ZM104.34,4h2.953V19.438H104.34V18.25h1.508V5.188H104.34Z" transform="translate(1259 2449)" fill="#12263f"/><path d="M18.375,15.359a.846.846,0,0,1,.633.234.807.807,0,0,1,.242.625.844.844,0,0,1-.258.621.929.929,0,0,1-.625.254.788.788,0,0,1-.859-.828.874.874,0,0,1,.867-.906Zm1.2-6.9A.846.846,0,0,1,20.2,8.7a.807.807,0,0,1,.242.625.844.844,0,0,1-.258.621.929.929,0,0,1-.625.254.788.788,0,0,1-.859-.828.874.874,0,0,1,.867-.906ZM21.469,17,23.445,5.625l3.336.008a3.793,3.793,0,0,1,2.609.781,2.5,2.5,0,0,1,.758,2.18,2.957,2.957,0,0,1-2.055,2.461,2.117,2.117,0,0,1,1.145,1.016,2.839,2.839,0,0,1,.309,1.586A3.318,3.318,0,0,1,28.313,16.1a4.456,4.456,0,0,1-2.891.9Zm2.391-5.32-.711,4.086,2.32.008A2.78,2.78,0,0,0,27.25,15.2a2.218,2.218,0,0,0,.836-1.536,1.821,1.821,0,0,0-.32-1.435,1.745,1.745,0,0,0-1.352-.546Zm.211-1.2,2.117.008a2.727,2.727,0,0,0,1.676-.509,2,2,0,0,0,.8-1.4,1.431,1.431,0,0,0-.324-1.253,2.075,2.075,0,0,0-1.41-.462L24.7,6.852ZM36.164,17a1.894,1.894,0,0,1-.055-.445l.023-.445a3.465,3.465,0,0,1-2.469,1.047,2.526,2.526,0,0,1-1.816-.707,2.14,2.14,0,0,1-.637-1.73,2.6,2.6,0,0,1,1.176-2.1,5.005,5.005,0,0,1,2.887-.754l1.477.008.094-.672a1.545,1.545,0,0,0-.293-1.2,1.414,1.414,0,0,0-1.113-.457,2.181,2.181,0,0,0-1.285.355,1.513,1.513,0,0,0-.684.98l-1.422.008a2.266,2.266,0,0,1,.578-1.316,3.363,3.363,0,0,1,1.3-.891,4.215,4.215,0,0,1,1.648-.3,2.8,2.8,0,0,1,2.055.8,2.484,2.484,0,0,1,.617,2.043l-.687,4.188-.039.6a2.949,2.949,0,0,0,.094.852L37.6,17Zm-2.219-1.094a2.466,2.466,0,0,0,1.285-.324,3.254,3.254,0,0,0,1.043-.941l.3-1.742-1.07-.008a4.054,4.054,0,0,0-2.047.422,1.554,1.554,0,0,0-.8,1.2,1.21,1.21,0,0,0,.277.988A1.321,1.321,0,0,0,33.945,15.906Zm9.141.078a2.145,2.145,0,0,0,1.367-.441,2.1,2.1,0,0,0,.8-1.2l1.336-.008a3.014,3.014,0,0,1-.637,1.453,3.68,3.68,0,0,1-2.926,1.367,3.017,3.017,0,0,1-1.785-.551,3.084,3.084,0,0,1-1.074-1.492,4.972,4.972,0,0,1-.234-2.152l.039-.391a5.605,5.605,0,0,1,.711-2.18,4.11,4.11,0,0,1,1.469-1.5,3.648,3.648,0,0,1,2-.5,2.857,2.857,0,0,1,2.125.891,3.08,3.08,0,0,1,.8,2.18l-1.32-.008a2.029,2.029,0,0,0-.461-1.34,1.607,1.607,0,0,0-1.2-.543,2.254,2.254,0,0,0-1.832.82,4.3,4.3,0,0,0-.91,2.359l-.023.2a6.776,6.776,0,0,0-.016,1.031,2.355,2.355,0,0,0,.516,1.445A1.656,1.656,0,0,0,43.086,15.984ZM50.75,13.1l-1.109.992L49.141,17H47.727L49.813,5h1.414l-1.25,7.172.867-.875,3-2.75H55.68l-3.883,3.6L54.469,17H52.922Zm10.281,3.063a3.265,3.265,0,0,1-2.523.992,2.107,2.107,0,0,1-1.793-.867,3.317,3.317,0,0,1-.434-2.281l.906-5.461H58.6l-.914,5.484a3.642,3.642,0,0,0-.016.672,1.4,1.4,0,0,0,.336.883,1.146,1.146,0,0,0,.828.344A2.537,2.537,0,0,0,61.18,14.7l1.063-6.156h1.414L62.188,17H60.852Zm10.922-3.352a6.706,6.706,0,0,1-.7,2.32,3.949,3.949,0,0,1-1.336,1.543,3.058,3.058,0,0,1-1.766.488,2.815,2.815,0,0,1-2.25-.992l-.758,4.078H63.734l2.031-11.7,1.281-.008-.156.945A3.207,3.207,0,0,1,69.4,8.391a2.358,2.358,0,0,1,1.9.9,3.954,3.954,0,0,1,.719,2.391,8.412,8.412,0,0,1-.039.969Zm-1.391-.16L70.6,12a2.969,2.969,0,0,0-.434-1.744,1.525,1.525,0,0,0-1.254-.636A2.508,2.508,0,0,0,66.8,10.78l-.711,4.05A1.769,1.769,0,0,0,67.8,15.984a2.224,2.224,0,0,0,1.793-.823A4.777,4.777,0,0,0,70.563,12.652Zm8.906-.106L78.7,17H77.227L79.2,5.625l3.8.008a3.713,3.713,0,0,1,2.711.934,2.937,2.937,0,0,1,.82,2.48,3.541,3.541,0,0,1-1.3,2.57,4.718,4.718,0,0,1-3.059.938Zm.211-1.227,2.531.008a3.079,3.079,0,0,0,1.961-.6,2.407,2.407,0,0,0,.9-1.672,1.886,1.886,0,0,0-.4-1.559,2.005,2.005,0,0,0-1.523-.629l-2.7-.008Zm11.789-2.93a3.047,3.047,0,0,1,1.82.578A3.285,3.285,0,0,1,94.41,10.52a4.8,4.8,0,0,1,.246,2.16l-.016.172a5.685,5.685,0,0,1-.734,2.23,4.309,4.309,0,0,1-1.516,1.551,3.7,3.7,0,0,1-2.039.523,3.052,3.052,0,0,1-1.816-.578,3.21,3.21,0,0,1-1.113-1.531,4.931,4.931,0,0,1-.25-2.133,5.76,5.76,0,0,1,.711-2.359A4.409,4.409,0,0,1,89.41,8.934,3.652,3.652,0,0,1,91.469,8.391Zm-2.875,4.531a4.8,4.8,0,0,0,0,1.023,2.507,2.507,0,0,0,.551,1.469,1.653,1.653,0,0,0,1.262.57,2.253,2.253,0,0,0,1.3-.348,2.919,2.919,0,0,0,1-1.121,4.721,4.721,0,0,0,.523-1.664,7.5,7.5,0,0,0,.023-1.211,2.6,2.6,0,0,0-.57-1.492,1.69,1.69,0,0,0-1.266-.578,2.3,2.3,0,0,0-1.859.859,4.245,4.245,0,0,0-.945,2.313ZM103.289,15l2.7-6.453h1.461L103.594,17h-1.148l-.875-6.391L98.523,17H97.375l-.914-8.453h1.352l.516,6.3,3-6.3h1.141Zm7.813,2.156a3.048,3.048,0,0,1-2.469-1.164,4.006,4.006,0,0,1-.75-2.9l.039-.336a5.624,5.624,0,0,1,.746-2.3,4.339,4.339,0,0,1,1.5-1.566,3.491,3.491,0,0,1,1.906-.5,2.688,2.688,0,0,1,2.047.867,3.566,3.566,0,0,1,.813,2.266,6.62,6.62,0,0,1-.031,1.016l-.086.648h-5.523a2.856,2.856,0,0,0,.379,1.953,1.8,1.8,0,0,0,1.551.836,3.007,3.007,0,0,0,2.313-1.125l.813.688a3.718,3.718,0,0,1-1.371,1.2A3.886,3.886,0,0,1,111.1,17.156ZM112,9.57a2.066,2.066,0,0,0-1.527.594A4.22,4.22,0,0,0,109.438,12l4.109.008.031-.125a2.313,2.313,0,0,0-.316-1.637A1.488,1.488,0,0,0,112,9.57Zm9,.266-.664-.07a2.42,2.42,0,0,0-2.141,1.227L117.156,17h-1.414l1.469-8.453,1.367-.008-.211.984a2.527,2.527,0,0,1,2.117-1.148,2.594,2.594,0,0,1,.672.117ZM41.914,38.07q.172-1.25-1.3-1.828l-1.352-.492-.453-.2q-2.281-1.039-2.133-2.922a3.056,3.056,0,0,1,.648-1.672A3.69,3.69,0,0,1,38.84,29.84a4.849,4.849,0,0,1,2-.371,4,4,0,0,1,1.84.461,2.962,2.962,0,0,1,1.23,1.223,3.333,3.333,0,0,1,.375,1.77l-1.477-.008a2.037,2.037,0,0,0-.469-1.627,2.1,2.1,0,0,0-1.562-.592,2.91,2.91,0,0,0-1.789.5,1.955,1.955,0,0,0-.828,1.409q-.156,1.166,1.43,1.769l1.164.415.586.25a2.941,2.941,0,0,1,2.039,3.016,3.012,3.012,0,0,1-.648,1.66A3.626,3.626,0,0,1,41.207,40.8a5.266,5.266,0,0,1-2.074.359,4.339,4.339,0,0,1-1.957-.457,3.193,3.193,0,0,1-1.348-1.23,3.078,3.078,0,0,1-.406-1.773l1.469.008a1.935,1.935,0,0,0,.551,1.613,2.479,2.479,0,0,0,1.754.613,3.131,3.131,0,0,0,1.867-.492A1.916,1.916,0,0,0,41.914,38.07Zm8.047,2.094a3.265,3.265,0,0,1-2.523.992,2.107,2.107,0,0,1-1.793-.867,3.317,3.317,0,0,1-.434-2.281l.906-5.461h1.414l-.914,5.484a3.642,3.642,0,0,0-.016.672,1.4,1.4,0,0,0,.336.883,1.146,1.146,0,0,0,.828.344A2.537,2.537,0,0,0,50.109,38.7l1.063-6.156h1.414L51.117,41H49.781Zm10.922-3.352a6.707,6.707,0,0,1-.7,2.32,3.949,3.949,0,0,1-1.336,1.543,3.058,3.058,0,0,1-1.766.488,2.815,2.815,0,0,1-2.25-.992l-.758,4.078H52.664l2.031-11.7,1.281-.008-.156.945a3.207,3.207,0,0,1,2.508-1.094,2.358,2.358,0,0,1,1.9.9,3.954,3.954,0,0,1,.719,2.391,8.413,8.413,0,0,1-.039.969Zm-1.391-.16L59.531,36a2.969,2.969,0,0,0-.434-1.744,1.525,1.525,0,0,0-1.254-.636,2.508,2.508,0,0,0-2.117,1.163l-.711,4.05a1.769,1.769,0,0,0,1.711,1.155,2.224,2.224,0,0,0,1.793-.823A4.777,4.777,0,0,0,59.492,36.652Zm10.18.16a6.706,6.706,0,0,1-.7,2.32,3.949,3.949,0,0,1-1.336,1.543,3.058,3.058,0,0,1-1.766.488,2.815,2.815,0,0,1-2.25-.992l-.758,4.078H61.453l2.031-11.7,1.281-.008-.156.945a3.207,3.207,0,0,1,2.508-1.094,2.358,2.358,0,0,1,1.9.9,3.954,3.954,0,0,1,.719,2.391,8.412,8.412,0,0,1-.039.969Zm-1.391-.16L68.32,36a2.969,2.969,0,0,0-.434-1.744,1.525,1.525,0,0,0-1.254-.636,2.508,2.508,0,0,0-2.117,1.163L63.8,38.83a1.769,1.769,0,0,0,1.711,1.155,2.224,2.224,0,0,0,1.793-.823A4.777,4.777,0,0,0,68.281,36.652ZM72.336,41H70.93l2.078-12h1.414Zm5.344-2.133,3.008-6.32H82.25l-5.016,9.859q-1.047,2.055-2.687,2.031A4.6,4.6,0,0,1,73.7,44.3l.125-1.172.367.039a1.853,1.853,0,0,0,1.16-.3,2.772,2.772,0,0,0,.863-1.074l.508-.969-1.461-8.273h1.477Zm13.148-9.68H89.383L87.344,42.25H88.8l-.187,1.188H85.742L88.148,28h2.875ZM94.664,41H93.242l1.672-9.594-3.023,1.063.242-1.375,4.219-1.523h.25Zm5.445-13h2.875L100.57,43.438H97.7l.188-1.187h1.461l2.039-13.062H99.914Z" transform="translate(620 2808)" fill="#12263f"/><path d="M10.355,15.359a.846.846,0,0,1,.633.234.807.807,0,0,1,.242.625.844.844,0,0,1-.258.621.929.929,0,0,1-.625.254.788.788,0,0,1-.859-.828.874.874,0,0,1,.867-.906Zm1.2-6.9a.846.846,0,0,1,.633.234.807.807,0,0,1,.242.625.844.844,0,0,1-.258.621.929.929,0,0,1-.625.254.788.788,0,0,1-.859-.828.874.874,0,0,1,.867-.906Zm4.141,4.086L14.918,17H13.449L15.426,5.625l3.8.008a3.713,3.713,0,0,1,2.711.934,2.937,2.937,0,0,1,.82,2.48,3.541,3.541,0,0,1-1.3,2.57,4.718,4.718,0,0,1-3.059.938ZM15.9,11.32l2.531.008a3.079,3.079,0,0,0,1.961-.6,2.407,2.407,0,0,0,.9-1.672,1.886,1.886,0,0,0-.4-1.559,2.005,2.005,0,0,0-1.523-.629l-2.7-.008Zm11.789-2.93a3.047,3.047,0,0,1,1.82.578,3.285,3.285,0,0,1,1.121,1.551,4.8,4.8,0,0,1,.246,2.16l-.016.172a5.685,5.685,0,0,1-.734,2.23,4.309,4.309,0,0,1-1.516,1.551,3.7,3.7,0,0,1-2.039.523,3.052,3.052,0,0,1-1.816-.578,3.21,3.21,0,0,1-1.113-1.531,4.931,4.931,0,0,1-.25-2.133,5.76,5.76,0,0,1,.711-2.359,4.409,4.409,0,0,1,1.527-1.621A3.652,3.652,0,0,1,27.691,8.391Zm-2.875,4.531a4.8,4.8,0,0,0,0,1.023,2.507,2.507,0,0,0,.551,1.469,1.653,1.653,0,0,0,1.262.57,2.253,2.253,0,0,0,1.3-.348,2.919,2.919,0,0,0,1-1.121,4.721,4.721,0,0,0,.523-1.664,7.494,7.494,0,0,0,.023-1.211,2.6,2.6,0,0,0-.57-1.492,1.69,1.69,0,0,0-1.266-.578,2.3,2.3,0,0,0-1.859.859,4.245,4.245,0,0,0-.945,2.313ZM39.512,15l2.7-6.453h1.461L39.816,17H38.668l-.875-6.391L34.746,17H33.6l-.914-8.453h1.352l.516,6.3,3-6.3h1.141Zm7.813,2.156a3.048,3.048,0,0,1-2.469-1.164,4.006,4.006,0,0,1-.75-2.9l.039-.336a5.624,5.624,0,0,1,.746-2.3,4.339,4.339,0,0,1,1.5-1.566,3.491,3.491,0,0,1,1.906-.5,2.688,2.688,0,0,1,2.047.867,3.566,3.566,0,0,1,.813,2.266,6.621,6.621,0,0,1-.031,1.016l-.086.648H45.512a2.856,2.856,0,0,0,.379,1.953,1.8,1.8,0,0,0,1.551.836,3.007,3.007,0,0,0,2.313-1.125l.813.688a3.718,3.718,0,0,1-1.371,1.2A3.886,3.886,0,0,1,47.324,17.156Zm.9-7.586a2.066,2.066,0,0,0-1.527.594A4.22,4.22,0,0,0,45.66,12l4.109.008.031-.125a2.313,2.313,0,0,0-.316-1.637A1.488,1.488,0,0,0,48.223,9.57Zm9,.266-.664-.07a2.42,2.42,0,0,0-2.141,1.227L53.379,17H51.965l1.469-8.453L54.8,8.539l-.211.984a2.527,2.527,0,0,1,2.117-1.148,2.594,2.594,0,0,1,.672.117Zm10.6,4.234q.172-1.25-1.3-1.828l-1.352-.492-.453-.2q-2.281-1.039-2.133-2.922a3.056,3.056,0,0,1,.648-1.672A3.69,3.69,0,0,1,64.75,5.84a4.849,4.849,0,0,1,2-.371,4,4,0,0,1,1.84.461,2.962,2.962,0,0,1,1.23,1.223,3.333,3.333,0,0,1,.375,1.77l-1.477-.008a2.037,2.037,0,0,0-.469-1.627A2.1,2.1,0,0,0,66.691,6.7a2.91,2.91,0,0,0-1.789.5,1.955,1.955,0,0,0-.828,1.409q-.156,1.166,1.43,1.769l1.164.415.586.25a2.941,2.941,0,0,1,2.039,3.016,3.012,3.012,0,0,1-.648,1.66A3.626,3.626,0,0,1,67.117,16.8a5.266,5.266,0,0,1-2.074.359,4.34,4.34,0,0,1-1.957-.457,3.193,3.193,0,0,1-1.348-1.23,3.078,3.078,0,0,1-.406-1.773L62.8,13.7a1.935,1.935,0,0,0,.551,1.613,2.479,2.479,0,0,0,1.754.613,3.131,3.131,0,0,0,1.867-.492A1.916,1.916,0,0,0,67.824,14.07Zm8.047,2.094a3.265,3.265,0,0,1-2.523.992,2.107,2.107,0,0,1-1.793-.867,3.317,3.317,0,0,1-.434-2.281l.906-5.461h1.414l-.914,5.484a3.643,3.643,0,0,0-.016.672,1.4,1.4,0,0,0,.336.883,1.146,1.146,0,0,0,.828.344A2.537,2.537,0,0,0,76.02,14.7l1.063-6.156H78.5L77.027,17H75.691Zm10.922-3.352a6.706,6.706,0,0,1-.7,2.32,3.949,3.949,0,0,1-1.336,1.543A3.058,3.058,0,0,1,83,17.164a2.815,2.815,0,0,1-2.25-.992l-.758,4.078H78.574l2.031-11.7,1.281-.008-.156.945a3.207,3.207,0,0,1,2.508-1.094,2.358,2.358,0,0,1,1.9.9,3.954,3.954,0,0,1,.719,2.391,8.412,8.412,0,0,1-.039.969Zm-1.391-.16L85.441,12a2.969,2.969,0,0,0-.434-1.744,1.525,1.525,0,0,0-1.254-.636,2.508,2.508,0,0,0-2.117,1.163l-.711,4.05a1.769,1.769,0,0,0,1.711,1.155,2.224,2.224,0,0,0,1.793-.823A4.777,4.777,0,0,0,85.4,12.652Zm10.18.16a6.706,6.706,0,0,1-.7,2.32,3.949,3.949,0,0,1-1.336,1.543,3.058,3.058,0,0,1-1.766.488,2.815,2.815,0,0,1-2.25-.992l-.758,4.078H87.363l2.031-11.7,1.281-.008-.156.945a3.207,3.207,0,0,1,2.508-1.094,2.358,2.358,0,0,1,1.9.9,3.954,3.954,0,0,1,.719,2.391,8.412,8.412,0,0,1-.039.969Zm-1.391-.16L94.23,12a2.969,2.969,0,0,0-.434-1.744,1.525,1.525,0,0,0-1.254-.636,2.508,2.508,0,0,0-2.117,1.163l-.711,4.05a1.769,1.769,0,0,0,1.711,1.155,2.224,2.224,0,0,0,1.793-.823A4.777,4.777,0,0,0,94.191,12.652ZM98.246,17H96.84L98.918,5h1.414Zm5.344-2.133,3.008-6.32h1.563l-5.016,9.859q-1.047,2.055-2.687,2.031a4.6,4.6,0,0,1-.852-.141l.125-1.172.367.039a1.853,1.853,0,0,0,1.16-.3,2.772,2.772,0,0,0,.863-1.074l.508-.969-1.461-8.273h1.477Zm13.148-9.68h-1.445L113.254,18.25h1.453l-.187,1.188h-2.867L114.059,4h2.875ZM120.574,17h-1.422l1.672-9.594L117.8,8.469l.242-1.375,4.219-1.523h.25ZM126.02,4h2.875L126.48,19.438h-2.875l.188-1.187h1.461l2.039-13.062h-1.469Z" transform="translate(620 2743)" fill="#12263f"/><path d="M30.555,16.242a.905.905,0,0,1,.223-.625.848.848,0,0,1,.668-.25.874.874,0,0,1,.676.25.887.887,0,0,1,.23.625.839.839,0,0,1-.23.6.89.89,0,0,1-.676.242.8.8,0,0,1-.891-.844Zm.008-6.9a.905.905,0,0,1,.223-.625.848.848,0,0,1,.668-.25.874.874,0,0,1,.676.25.887.887,0,0,1,.23.625.839.839,0,0,1-.23.6.89.89,0,0,1-.676.242.8.8,0,0,1-.891-.844Zm5.641,3.2V17H34.7V5.625h4.2a4.215,4.215,0,0,1,2.926.953A3.231,3.231,0,0,1,42.883,9.1a3.189,3.189,0,0,1-1.035,2.551,4.4,4.4,0,0,1-2.965.895Zm0-1.227h2.7a2.7,2.7,0,0,0,1.844-.567,2.075,2.075,0,0,0,.641-1.64,2.143,2.143,0,0,0-.641-1.628,2.525,2.525,0,0,0-1.758-.634H36.2Zm16.961,2.07a4.185,4.185,0,0,1-1.332,2.785,4.365,4.365,0,0,1-2.98.98,4.008,4.008,0,0,1-3.23-1.445,5.815,5.815,0,0,1-1.215-3.867V10.75a6.481,6.481,0,0,1,.566-2.789,4.231,4.231,0,0,1,1.605-1.848,4.47,4.47,0,0,1,2.406-.645A4.11,4.11,0,0,1,51.891,6.48a4.235,4.235,0,0,1,1.273,2.8H51.656a3.268,3.268,0,0,0-.848-1.975A2.565,2.565,0,0,0,48.984,6.7,2.684,2.684,0,0,0,46.73,7.759a4.882,4.882,0,0,0-.816,3.026v1.1a5.018,5.018,0,0,0,.773,2.948,2.5,2.5,0,0,0,2.164,1.095,2.887,2.887,0,0,0,1.918-.566,3.143,3.143,0,0,0,.887-1.973ZM56.82,17h-1.5V5.625h1.5Zm5.523-4.242H58.531v-1.18h3.813Zm8.063-1.016h-4.93v4.031H71.2V17H63.977V5.625h7.148V6.852H65.477v3.664h4.93ZM79.8,5.188H78.3V18.25H79.8v1.188H76.852V4H79.8ZM88.352,17H80.9V15.961l3.938-4.375a9.354,9.354,0,0,0,1.207-1.613,2.693,2.693,0,0,0,.332-1.285,2.041,2.041,0,0,0-.539-1.461,1.885,1.885,0,0,0-1.437-.57,2.232,2.232,0,0,0-1.676.613,2.343,2.343,0,0,0-.6,1.707H80.68a3.355,3.355,0,0,1,1.012-2.539A3.751,3.751,0,0,1,84.4,5.469a3.6,3.6,0,0,1,2.508.832,2.838,2.838,0,0,1,.922,2.215q0,1.68-2.141,4l-3.047,3.3h5.711Zm1.711-.758a.905.905,0,0,1,.223-.625.848.848,0,0,1,.668-.25.874.874,0,0,1,.676.25.887.887,0,0,1,.23.625.839.839,0,0,1-.23.6.89.89,0,0,1-.676.242.8.8,0,0,1-.891-.844Zm4.211,0a.905.905,0,0,1,.223-.625.848.848,0,0,1,.668-.25.874.874,0,0,1,.676.25.887.887,0,0,1,.23.625.839.839,0,0,1-.23.6.89.89,0,0,1-.676.242.8.8,0,0,1-.891-.844Zm5.664-6.926-2.359-.7.359-1.178,2.359.874-.07-2.685h1.2l-.078,2.724,2.32-.859.359,1.186-2.4.71,1.547,2.117-.969.734-1.453-2.25-1.406,2.2-.977-.711ZM104.32,4h2.953V19.438H104.32V18.25h1.508V5.188H104.32Z" transform="translate(1259 2743)" fill="#12263f"/><path d="M26.1,16.242a.905.905,0,0,1,.223-.625.848.848,0,0,1,.668-.25.874.874,0,0,1,.676.25.887.887,0,0,1,.23.625.839.839,0,0,1-.23.6.89.89,0,0,1-.676.242.8.8,0,0,1-.891-.844Zm.008-6.9a.905.905,0,0,1,.223-.625A.848.848,0,0,1,27,8.469a.874.874,0,0,1,.676.25.887.887,0,0,1,.23.625.839.839,0,0,1-.23.6.89.89,0,0,1-.676.242.8.8,0,0,1-.891-.844ZM33.6,11.93a7.053,7.053,0,0,1-2.809-1.363,2.6,2.6,0,0,1-.879-2,2.751,2.751,0,0,1,1.074-2.223,4.269,4.269,0,0,1,2.793-.879,4.66,4.66,0,0,1,2.09.453,3.436,3.436,0,0,1,1.422,1.25,3.2,3.2,0,0,1,.5,1.742H36.289a2.08,2.08,0,0,0-.656-1.627A2.669,2.669,0,0,0,33.781,6.7a2.732,2.732,0,0,0-1.73.489,1.632,1.632,0,0,0-.621,1.358,1.468,1.468,0,0,0,.59,1.178,5.785,5.785,0,0,0,2.008.88,9.316,9.316,0,0,1,2.219.88A3.367,3.367,0,0,1,37.434,12.6a2.861,2.861,0,0,1,.387,1.508,2.658,2.658,0,0,1-1.078,2.215,4.6,4.6,0,0,1-2.883.832,5.347,5.347,0,0,1-2.187-.449,3.681,3.681,0,0,1-1.566-1.23,3,3,0,0,1-.551-1.773h1.508a1.959,1.959,0,0,0,.762,1.629,3.207,3.207,0,0,0,2.035.6,2.948,2.948,0,0,0,1.82-.484,1.573,1.573,0,0,0,.633-1.32,1.545,1.545,0,0,0-.586-1.293A6.755,6.755,0,0,0,33.6,11.93Zm12.422,2.094H41.258L40.188,17H38.641L42.984,5.625H44.3L48.648,17H47.109ZM41.711,12.8h3.867l-1.937-5.32Zm15.32-5.945H53.375V17H51.883V6.852H48.234V5.625h8.8Zm7.352,7.172H59.617L58.547,17H57L61.344,5.625h1.313L67.008,17H65.469ZM60.07,12.8h3.867L62,7.477Zm10.2-2.187h1.086a2.387,2.387,0,0,0,1.609-.539,1.8,1.8,0,0,0,.586-1.414,1.764,1.764,0,0,0-1.992-2,2.072,2.072,0,0,0-1.5.535A1.873,1.873,0,0,0,69.5,8.609H68.055a2.9,2.9,0,0,1,.988-2.246,3.6,3.6,0,0,1,2.512-.895,3.558,3.558,0,0,1,2.523.852,3.076,3.076,0,0,1,.914,2.367,2.5,2.5,0,0,1-.48,1.438A2.9,2.9,0,0,1,73.2,11.164a2.8,2.8,0,0,1,1.449.984,2.734,2.734,0,0,1,.512,1.68,3.1,3.1,0,0,1-1,2.43,3.745,3.745,0,0,1-2.6.9,3.844,3.844,0,0,1-2.605-.867,2.877,2.877,0,0,1-1-2.289h1.453a1.859,1.859,0,0,0,.586,1.438,2.229,2.229,0,0,0,1.57.539,2.187,2.187,0,0,0,1.6-.547,2.108,2.108,0,0,0,.555-1.57,1.912,1.912,0,0,0-.609-1.523,2.655,2.655,0,0,0-1.758-.547H70.266ZM84.25,5.188H82.758V18.25H84.25v1.188H81.3V4H84.25ZM90.1,17H88.648V7.367l-2.914,1.07V7.125L89.875,5.57H90.1Zm4.414-.758a.905.905,0,0,1,.223-.625.848.848,0,0,1,.668-.25.874.874,0,0,1,.676.25.887.887,0,0,1,.23.625.839.839,0,0,1-.23.6.89.89,0,0,1-.676.242.8.8,0,0,1-.891-.844Zm4.211,0a.905.905,0,0,1,.223-.625.848.848,0,0,1,.668-.25.874.874,0,0,1,.676.25.887.887,0,0,1,.23.625.839.839,0,0,1-.23.6.89.89,0,0,1-.676.242.8.8,0,0,1-.891-.844Zm5.664-6.926-2.359-.7.359-1.178,2.359.874-.07-2.685h1.2L105.8,8.349l2.32-.859.359,1.186-2.4.71,1.547,2.117-.969.734L105.2,9.988l-1.406,2.2-.977-.711ZM108.773,4h2.953V19.438h-2.953V18.25h1.508V5.188h-1.508Z" transform="translate(1259 2818)" fill="#12263f"/><path d="M21.543,15.359a.846.846,0,0,1,.633.234.807.807,0,0,1,.242.625.844.844,0,0,1-.258.621.929.929,0,0,1-.625.254.788.788,0,0,1-.859-.828.874.874,0,0,1,.867-.906Zm1.2-6.9a.846.846,0,0,1,.633.234.807.807,0,0,1,.242.625.844.844,0,0,1-.258.621.929.929,0,0,1-.625.254.788.788,0,0,1-.859-.828.874.874,0,0,1,.867-.906Zm5.727-2.836,1.992,9.266,5.219-9.266h1.93L35.629,17H34.168l.781-4.5.93-4.578L30.723,17H29.6L27.566,7.742l-.7,4.906L26.105,17H24.637L26.613,5.625ZM41.7,17.156a3.048,3.048,0,0,1-2.469-1.164,4.006,4.006,0,0,1-.75-2.9l.039-.336a5.624,5.624,0,0,1,.746-2.3,4.339,4.339,0,0,1,1.5-1.566,3.491,3.491,0,0,1,1.906-.5,2.688,2.688,0,0,1,2.047.867,3.566,3.566,0,0,1,.813,2.266,6.621,6.621,0,0,1-.031,1.016l-.086.648H39.887a2.856,2.856,0,0,0,.379,1.953,1.8,1.8,0,0,0,1.551.836,3.007,3.007,0,0,0,2.313-1.125l.813.688a3.718,3.718,0,0,1-1.371,1.2A3.886,3.886,0,0,1,41.7,17.156Zm.9-7.586a2.066,2.066,0,0,0-1.527.594A4.22,4.22,0,0,0,40.035,12l4.109.008.031-.125a2.313,2.313,0,0,0-.316-1.637A1.488,1.488,0,0,0,42.6,9.57Zm6.531-1.031-.18.945a3.305,3.305,0,0,1,2.57-1.094,2.608,2.608,0,0,1,1.363.367,1.8,1.8,0,0,1,.77.992,3.49,3.49,0,0,1,2.8-1.359,2.235,2.235,0,0,1,1.867.852,3.042,3.042,0,0,1,.445,2.2L57.84,17H56.434l.922-5.57a2.943,2.943,0,0,0,0-.742Q57.207,9.625,55.965,9.6a2.136,2.136,0,0,0-1.4.48,2.222,2.222,0,0,0-.809,1.3L52.793,17H51.371l.938-5.562a1.786,1.786,0,0,0-.262-1.336,1.377,1.377,0,0,0-1.129-.484,2.315,2.315,0,0,0-2.1,1.2L47.746,17H46.332L47.8,8.547Zm15.586-.148a3.047,3.047,0,0,1,1.82.578,3.285,3.285,0,0,1,1.121,1.551,4.8,4.8,0,0,1,.246,2.16l-.016.172a5.685,5.685,0,0,1-.734,2.23,4.309,4.309,0,0,1-1.516,1.551,3.7,3.7,0,0,1-2.039.523,3.052,3.052,0,0,1-1.816-.578,3.21,3.21,0,0,1-1.113-1.531,4.931,4.931,0,0,1-.25-2.133,5.76,5.76,0,0,1,.711-2.359,4.409,4.409,0,0,1,1.527-1.621A3.652,3.652,0,0,1,64.715,8.391ZM61.84,12.922a4.8,4.8,0,0,0,0,1.023,2.507,2.507,0,0,0,.551,1.469,1.653,1.653,0,0,0,1.262.57,2.253,2.253,0,0,0,1.3-.348,2.919,2.919,0,0,0,1-1.121,4.721,4.721,0,0,0,.523-1.664,7.5,7.5,0,0,0,.023-1.211,2.6,2.6,0,0,0-.57-1.492A1.69,1.69,0,0,0,64.66,9.57a2.3,2.3,0,0,0-1.859.859,4.245,4.245,0,0,0-.945,2.313ZM74.207,9.836l-.664-.07A2.42,2.42,0,0,0,71.4,10.992L70.363,17H68.949l1.469-8.453,1.367-.008-.211.984a2.527,2.527,0,0,1,2.117-1.148,2.594,2.594,0,0,1,.672.117Zm3.1,5.031,3.008-6.32h1.563l-5.016,9.859q-1.047,2.055-2.687,2.031a4.6,4.6,0,0,1-.852-.141l.125-1.172.367.039a1.853,1.853,0,0,0,1.16-.3,2.772,2.772,0,0,0,.863-1.074l.508-.969L74.887,8.547h1.477Zm13.148-9.68H89.012L86.973,18.25h1.453l-.187,1.188H85.371L87.777,4h2.875ZM94.293,17H92.871l1.672-9.594L91.52,8.469l.242-1.375L95.98,5.57h.25Zm5.359-1.641a.846.846,0,0,1,.633.234.807.807,0,0,1,.242.625.844.844,0,0,1-.258.621.929.929,0,0,1-.625.254.788.788,0,0,1-.859-.828.874.874,0,0,1,.867-.906Zm4.164,0a.846.846,0,0,1,.633.234.807.807,0,0,1,.242.625.844.844,0,0,1-.258.621.929.929,0,0,1-.625.254.788.788,0,0,1-.859-.828.874.874,0,0,1,.867-.906ZM109.7,9.285l-2.164-.7.531-1.124,2.172.882.4-2.716h1.172l-.547,2.685,2.367-.843.148,1.241-2.461.71,1.148,2.148-1,.688-1.023-2.266-1.734,2.188-.891-.766ZM114.832,4h2.875l-2.414,15.438h-2.875l.188-1.187h1.461l2.039-13.062h-1.469Z" transform="translate(620 2449)" fill="#12263f"/><path d="M16.9,10.6H12.854L12.089,15H10.8l1.729-9.953h5.988L18.33,6.12h-4.7l-.588,3.411h4.054ZM19.526,15H18.3L20.114,4.5h1.237Zm6.549,0a1.657,1.657,0,0,1-.048-.39l.021-.39a3.032,3.032,0,0,1-2.16.916,2.21,2.21,0,0,1-1.589-.619A1.872,1.872,0,0,1,21.741,13a2.277,2.277,0,0,1,1.029-1.835,4.38,4.38,0,0,1,2.526-.66l1.292.007.082-.588a1.352,1.352,0,0,0-.256-1.049,1.237,1.237,0,0,0-.974-.4,1.908,1.908,0,0,0-1.125.311,1.324,1.324,0,0,0-.6.858l-1.244.007A1.983,1.983,0,0,1,22.979,8.5a2.943,2.943,0,0,1,1.142-.779,3.688,3.688,0,0,1,1.442-.263,2.452,2.452,0,0,1,1.8.7,2.173,2.173,0,0,1,.54,1.788l-.6,3.664-.034.526a2.58,2.58,0,0,0,.082.745L27.333,15Zm-1.941-.957a2.158,2.158,0,0,0,1.125-.284,2.847,2.847,0,0,0,.913-.824l.267-1.524L25.5,11.4a3.547,3.547,0,0,0-1.791.369,1.36,1.36,0,0,0-.7,1.046,1.059,1.059,0,0,0,.243.865A1.156,1.156,0,0,0,24.134,14.043ZM33.588,13q.1-.766-.841-1.08l-1.285-.376q-1.627-.561-1.572-1.859a2.048,2.048,0,0,1,.892-1.6,3.177,3.177,0,0,1,1.986-.612,2.649,2.649,0,0,1,1.822.653,2.068,2.068,0,0,1,.673,1.665l-1.23-.007a1.154,1.154,0,0,0-.349-.9,1.379,1.379,0,0,0-.964-.362,1.8,1.8,0,0,0-1.107.314,1.151,1.151,0,0,0-.5.807q-.089.643.786.937l.622.171a4.005,4.005,0,0,1,1.8.854,1.632,1.632,0,0,1,.492,1.306,2.074,2.074,0,0,1-.451,1.2,2.58,2.58,0,0,1-1.094.783,3.658,3.658,0,0,1-1.456.25,2.885,2.885,0,0,1-1.941-.687,2.124,2.124,0,0,1-.738-1.733l1.237.007a1.311,1.311,0,0,0,.4,1,1.515,1.515,0,0,0,1.087.376,2.132,2.132,0,0,0,1.169-.284A1.091,1.091,0,0,0,33.588,13Zm4.8-4.491a2.866,2.866,0,0,1,2.235-1.032,1.8,1.8,0,0,1,1.542.714,2.815,2.815,0,0,1,.373,1.965L41.729,15H40.492l.813-4.867a2.6,2.6,0,0,0,.007-.622,1.022,1.022,0,0,0-1.128-.978,2.276,2.276,0,0,0-1.955,1.189L37.313,15H36.076L37.9,4.5h1.237ZM51.525,10.98h-2.3l-.7,4.02H47.239l1.729-9.953,2.994.007a3.337,3.337,0,0,1,2.386.794,2.477,2.477,0,0,1,.69,2.142,2.836,2.836,0,0,1-.68,1.649,3.716,3.716,0,0,1-1.61,1.074l1.545,4.2L54.287,15H52.92ZM49.413,9.9l1.887.007a2.635,2.635,0,0,0,1.661-.523,2.036,2.036,0,0,0,.793-1.4,1.608,1.608,0,0,0-.342-1.34,1.826,1.826,0,0,0-1.354-.513l-1.989-.007Zm9.912,5.236a3.187,3.187,0,0,1-1.651-.458,2.967,2.967,0,0,1-1.1-1.289,4.854,4.854,0,0,1-.444-1.911,9.074,9.074,0,0,1,.185-2.044,7.009,7.009,0,0,1,.779-2.194,4.945,4.945,0,0,1,1.347-1.565,3.876,3.876,0,0,1,2.447-.766,2.945,2.945,0,0,1,2.3,1.008,4.193,4.193,0,0,1,.9,2.656,9.778,9.778,0,0,1-.147,1.825,7.556,7.556,0,0,1-.622,2.058,5.135,5.135,0,0,1-1.138,1.593A3.914,3.914,0,0,1,59.325,15.137Zm3.493-6.248A3.449,3.449,0,0,0,62.347,6.8a1.8,1.8,0,0,0-1.524-.769,2.593,2.593,0,0,0-1.637.492A3.726,3.726,0,0,0,58,8.079a8.013,8.013,0,0,0-.584,2.622l-.021.444a3.479,3.479,0,0,0,.479,2.1,1.781,1.781,0,0,0,1.511.786A2.633,2.633,0,0,0,61.53,13.1a5.3,5.3,0,0,0,1.131-2.717A12.244,12.244,0,0,0,62.818,8.889Zm5.612-3.842,1.743,8.107L74.74,5.047h1.688L74.7,15H73.421l.684-3.937.813-4.006L70.406,15h-.984L67.645,6.9l-.615,4.293L66.366,15H65.081l1.729-9.953Z" transform="translate(758 2366)" fill="#12263f"/><path d="M25.938,15V5.047h2.81a4.523,4.523,0,0,1,2.3.574,3.884,3.884,0,0,1,1.542,1.634,5.318,5.318,0,0,1,.55,2.434v.636a5.336,5.336,0,0,1-.543,2.468,3.823,3.823,0,0,1-1.552,1.627A4.811,4.811,0,0,1,28.693,15Zm1.313-8.88v7.807h1.381a3,3,0,0,0,2.362-.944,3.9,3.9,0,0,0,.844-2.689V9.712a3.963,3.963,0,0,0-.8-2.637,2.834,2.834,0,0,0-2.259-.954ZM36.527,15H35.215V5.047h1.313Zm4.095-9.953,3.254,8.121L47.13,5.047h1.7V15H47.52V11.124l.123-4.184L44.375,15h-1L40.109,6.961l.13,4.163V15H38.927V5.047Zm12.223,0L56.1,13.168l3.254-8.121h1.7V15H59.742V11.124l.123-4.184L56.6,15h-1L52.332,6.961l.13,4.163V15H51.149V5.047Z" transform="translate(758 2430)" fill="#12263f"/><path d="M26.236,10.563a6.172,6.172,0,0,1-2.458-1.193,2.279,2.279,0,0,1-.769-1.747,2.408,2.408,0,0,1,.94-1.945,3.736,3.736,0,0,1,2.444-.769,4.078,4.078,0,0,1,1.829.4A3.007,3.007,0,0,1,29.466,6.4a2.8,2.8,0,0,1,.441,1.524H28.587A1.82,1.82,0,0,0,28.013,6.5a2.335,2.335,0,0,0-1.62-.518,2.391,2.391,0,0,0-1.514.428A1.428,1.428,0,0,0,24.335,7.6a1.285,1.285,0,0,0,.516,1.031,5.062,5.062,0,0,0,1.757.77,8.152,8.152,0,0,1,1.941.77,2.946,2.946,0,0,1,1.039.981,2.5,2.5,0,0,1,.338,1.319,2.326,2.326,0,0,1-.943,1.938,4.022,4.022,0,0,1-2.522.728,4.678,4.678,0,0,1-1.914-.393,3.221,3.221,0,0,1-1.371-1.077,2.627,2.627,0,0,1-.482-1.552h1.319a1.714,1.714,0,0,0,.667,1.425,2.806,2.806,0,0,0,1.781.523,2.58,2.58,0,0,0,1.593-.424,1.377,1.377,0,0,0,.554-1.155,1.351,1.351,0,0,0-.513-1.131A5.911,5.911,0,0,0,26.236,10.563Zm4.84.67A4.369,4.369,0,0,1,31.5,9.278a3.187,3.187,0,0,1,1.189-1.34,3.238,3.238,0,0,1,1.74-.472,3.119,3.119,0,0,1,2.444,1.046,4.024,4.024,0,0,1,.933,2.782v.089a4.407,4.407,0,0,1-.414,1.938,3.14,3.14,0,0,1-1.183,1.336,3.275,3.275,0,0,1-1.767.479,3.111,3.111,0,0,1-2.437-1.046,4,4,0,0,1-.933-2.769Zm1.271.15a3.164,3.164,0,0,0,.571,1.976,1.934,1.934,0,0,0,3.059-.01,3.46,3.46,0,0,0,.567-2.116,3.159,3.159,0,0,0-.578-1.972,1.836,1.836,0,0,0-1.535-.755,1.816,1.816,0,0,0-1.511.745A3.435,3.435,0,0,0,32.347,11.384ZM42.362,14.1a1.822,1.822,0,0,0,1.183-.41,1.443,1.443,0,0,0,.561-1.025h1.2a2.293,2.293,0,0,1-.437,1.21,2.881,2.881,0,0,1-1.077.916,3.107,3.107,0,0,1-1.425.342,3.047,3.047,0,0,1-2.4-1.008,4.016,4.016,0,0,1-.892-2.758v-.212a4.453,4.453,0,0,1,.4-1.921A3.02,3.02,0,0,1,40.6,7.932a3.233,3.233,0,0,1,1.753-.465,2.966,2.966,0,0,1,2.068.745,2.663,2.663,0,0,1,.878,1.935H44.1a1.743,1.743,0,0,0-.543-1.179,1.691,1.691,0,0,0-1.207-.461,1.77,1.77,0,0,0-1.494.694,3.259,3.259,0,0,0-.53,2.006v.239a3.194,3.194,0,0,0,.526,1.969A1.779,1.779,0,0,0,42.362,14.1Zm6.426-2.529-.793.827V15H46.73V4.5h1.265v6.351l.677-.813,2.3-2.434h1.538l-2.878,3.09L52.848,15H51.365Zm8.1,3.562a3.232,3.232,0,0,1-2.447-.988,3.666,3.666,0,0,1-.943-2.642v-.232a4.438,4.438,0,0,1,.42-1.965,3.28,3.28,0,0,1,1.176-1.354,2.956,2.956,0,0,1,1.637-.489,2.77,2.77,0,0,1,2.242.95,4.114,4.114,0,0,1,.8,2.721v.526H54.762a2.629,2.629,0,0,0,.639,1.767,2.009,2.009,0,0,0,1.555.673,2.2,2.2,0,0,0,1.135-.273,2.851,2.851,0,0,0,.813-.725l.772.6A3.106,3.106,0,0,1,56.888,15.137Zm-.157-6.631a1.687,1.687,0,0,0-1.285.557,2.708,2.708,0,0,0-.643,1.562h3.705v-.1a2.409,2.409,0,0,0-.52-1.494A1.588,1.588,0,0,0,56.731,8.506Zm6.221-2.693V7.6h1.381v.978H62.952v4.593a1.027,1.027,0,0,0,.185.667.777.777,0,0,0,.629.222,3.062,3.062,0,0,0,.6-.082V15a3.688,3.688,0,0,1-.971.136,1.575,1.575,0,0,1-1.278-.513,2.2,2.2,0,0,1-.431-1.456V8.581H60.34V7.6h1.347V5.813Z" transform="translate(758 2591)" fill="#12263f"/><path d="M13.678,15H7.157v-.909L10.6,10.263a8.185,8.185,0,0,0,1.056-1.412,2.356,2.356,0,0,0,.291-1.125,1.786,1.786,0,0,0-.472-1.278,1.649,1.649,0,0,0-1.258-.5,1.953,1.953,0,0,0-1.466.537A2.05,2.05,0,0,0,8.23,7.979H6.965a2.936,2.936,0,0,1,.885-2.222,3.282,3.282,0,0,1,2.369-.848,3.153,3.153,0,0,1,2.194.728,2.483,2.483,0,0,1,.807,1.938q0,1.47-1.873,3.5L8.681,13.968h5Zm6.679-3.343h1.381v1.032H20.357V15H19.085V12.689H14.553v-.745l4.457-6.9h1.347Zm-4.368,0h3.1V6.776l-.15.273Zm13.118-.369H25.771V10.256h3.336Zm10.944.1a4.429,4.429,0,0,1-.772,2.721,2.476,2.476,0,0,1-2.092,1.032,2.713,2.713,0,0,1-2.119-.854v3.562H33.8V7.6h1.155l.062.82a2.605,2.605,0,0,1,2.146-.957,2.522,2.522,0,0,1,2.109,1,4.477,4.477,0,0,1,.776,2.8Zm-1.265-.144a3.268,3.268,0,0,0-.533-1.976,1.718,1.718,0,0,0-1.463-.725,1.859,1.859,0,0,0-1.723,1.019v3.534A1.863,1.863,0,0,0,36.8,14.1a1.71,1.71,0,0,0,1.446-.721A3.567,3.567,0,0,0,38.787,11.24ZM43.032,15H41.767V7.6h1.265ZM41.665,5.642a.755.755,0,0,1,.188-.52.706.706,0,0,1,.557-.212.717.717,0,0,1,.561.212.747.747,0,0,1,.191.52.722.722,0,0,1-.191.513.73.73,0,0,1-.561.205.718.718,0,0,1-.557-.205A.73.73,0,0,1,41.665,5.642ZM46.251,7.6l.041.93a2.7,2.7,0,0,1,2.215-1.066q2.345,0,2.365,2.646V15H49.608V10.105a1.7,1.7,0,0,0-.366-1.183,1.466,1.466,0,0,0-1.118-.383,1.825,1.825,0,0,0-1.08.328,2.228,2.228,0,0,0-.725.861V15H45.055V7.6ZM61.94,12.4H57.77L56.833,15H55.48l3.8-9.953h1.148L64.237,15H62.89Zm-3.773-1.073H61.55l-1.7-4.655Zm13.405-5.2h-3.2V15H67.067V6.12H63.875V5.047h7.7ZM76.3,8.861l2.386-3.814h1.545L77.082,9.982,80.3,15H78.743L76.3,11.117,73.834,15H72.283l3.227-5.018L72.358,5.047H73.9Z" transform="translate(758 2724)" fill="#12263f"/><path d="M13.678,15H7.157v-.909L10.6,10.263a8.185,8.185,0,0,0,1.056-1.412,2.356,2.356,0,0,0,.291-1.125,1.786,1.786,0,0,0-.472-1.278,1.649,1.649,0,0,0-1.258-.5,1.953,1.953,0,0,0-1.466.537A2.05,2.05,0,0,0,8.23,7.979H6.965a2.936,2.936,0,0,1,.885-2.222,3.282,3.282,0,0,1,2.369-.848,3.153,3.153,0,0,1,2.194.728,2.483,2.483,0,0,1,.807,1.938q0,1.47-1.873,3.5L8.681,13.968h5Zm6.679-3.343h1.381v1.032H20.357V15H19.085V12.689H14.553v-.745l4.457-6.9h1.347Zm-4.368,0h3.1V6.776l-.15.273Zm13.118-.369H25.771V10.256h3.336Zm10.944.1a4.429,4.429,0,0,1-.772,2.721,2.476,2.476,0,0,1-2.092,1.032,2.713,2.713,0,0,1-2.119-.854v3.562H33.8V7.6h1.155l.062.82a2.605,2.605,0,0,1,2.146-.957,2.522,2.522,0,0,1,2.109,1,4.477,4.477,0,0,1,.776,2.8Zm-1.265-.144a3.268,3.268,0,0,0-.533-1.976,1.718,1.718,0,0,0-1.463-.725,1.859,1.859,0,0,0-1.723,1.019v3.534A1.863,1.863,0,0,0,36.8,14.1a1.71,1.71,0,0,0,1.446-.721A3.567,3.567,0,0,0,38.787,11.24ZM43.032,15H41.767V7.6h1.265ZM41.665,5.642a.755.755,0,0,1,.188-.52.706.706,0,0,1,.557-.212.717.717,0,0,1,.561.212.747.747,0,0,1,.191.52.722.722,0,0,1-.191.513.73.73,0,0,1-.561.205.718.718,0,0,1-.557-.205A.73.73,0,0,1,41.665,5.642ZM46.251,7.6l.041.93a2.7,2.7,0,0,1,2.215-1.066q2.345,0,2.365,2.646V15H49.608V10.105a1.7,1.7,0,0,0-.366-1.183,1.466,1.466,0,0,0-1.118-.383,1.825,1.825,0,0,0-1.08.328,2.228,2.228,0,0,0-.725.861V15H45.055V7.6ZM61.94,12.4H57.77L56.833,15H55.48l3.8-9.953h1.148L64.237,15H62.89Zm-3.773-1.073H61.55l-1.7-4.655Zm13.405-5.2h-3.2V15H67.067V6.12H63.875V5.047h7.7ZM76.3,8.861l2.386-3.814h1.545L77.082,9.982,80.3,15H78.743L76.3,11.117,73.834,15H72.283l3.227-5.018L72.358,5.047H73.9Z" transform="translate(758 2800)" fill="#12263f"/><path d="M34.074,15.359a.846.846,0,0,1,.633.234.807.807,0,0,1,.242.625.844.844,0,0,1-.258.621.929.929,0,0,1-.625.254.788.788,0,0,1-.859-.828.874.874,0,0,1,.867-.906Zm1.2-6.9A.846.846,0,0,1,35.9,8.7a.807.807,0,0,1,.242.625.844.844,0,0,1-.258.621.929.929,0,0,1-.625.254.788.788,0,0,1-.859-.828.874.874,0,0,1,.867-.906Zm10.57,4.914a4.535,4.535,0,0,1-1.6,2.8,4.476,4.476,0,0,1-3.043.984,3.544,3.544,0,0,1-1.844-.52,3.283,3.283,0,0,1-1.227-1.43,5.34,5.34,0,0,1-.484-2.066,6.623,6.623,0,0,1,.055-1.25l.133-.937a7.076,7.076,0,0,1,1.8-4.043,4.544,4.544,0,0,1,3.488-1.441A3.4,3.4,0,0,1,45.66,6.5a4.117,4.117,0,0,1,.992,2.785H45.191q-.1-2.391-1.875-2.578L43.059,6.7a3.019,3.019,0,0,0-2.465,1.1A5.942,5.942,0,0,0,39.316,10.9l-.172,1.18-.047.688a3.867,3.867,0,0,0,.512,2.285,1.929,1.929,0,0,0,1.66.879,2.924,2.924,0,0,0,1.965-.57A3.8,3.8,0,0,0,44.418,13.4Zm3.75-.828L48.816,17H47.348L49.324,5.625l3.8.008a3.713,3.713,0,0,1,2.711.934,2.937,2.937,0,0,1,.82,2.48,3.541,3.541,0,0,1-1.3,2.57,4.718,4.718,0,0,1-3.059.938ZM49.8,11.32l2.531.008a3.079,3.079,0,0,0,1.961-.6,2.407,2.407,0,0,0,.9-1.672,1.886,1.886,0,0,0-.4-1.559,2.005,2.005,0,0,0-1.523-.629l-2.7-.008ZM67,5.625l-1.312,7.7a4.368,4.368,0,0,1-1.531,2.824,4.5,4.5,0,0,1-3.055,1.02,3.956,3.956,0,0,1-1.941-.5,2.9,2.9,0,0,1-1.215-1.352,3.69,3.69,0,0,1-.258-1.98L59,5.625h1.445l-1.3,7.717a2.5,2.5,0,0,0,.406,1.88,2.031,2.031,0,0,0,1.633.715,2.812,2.812,0,0,0,2-.645,3.125,3.125,0,0,0,1.027-1.943l1.313-7.725Zm8.891-.437H74.449L72.41,18.25h1.453l-.187,1.188H70.809L73.215,4H76.09ZM79.73,17H78.309L79.98,7.406,76.957,8.469,77.2,7.094,81.418,5.57h.25Zm5.359-1.641a.846.846,0,0,1,.633.234.807.807,0,0,1,.242.625.844.844,0,0,1-.258.621.929.929,0,0,1-.625.254.788.788,0,0,1-.859-.828.874.874,0,0,1,.867-.906Zm4.164,0a.846.846,0,0,1,.633.234.807.807,0,0,1,.242.625.844.844,0,0,1-.258.621.929.929,0,0,1-.625.254.788.788,0,0,1-.859-.828.874.874,0,0,1,.867-.906ZM99.559,17H92.316l.172-1.1,4.2-4.078.766-.758A4.483,4.483,0,0,0,98.91,8.625a1.807,1.807,0,0,0-.336-1.4,1.58,1.58,0,0,0-1.234-.574,2.328,2.328,0,0,0-1.711.6,2.745,2.745,0,0,0-.836,1.723l-1.4.008a3.956,3.956,0,0,1,.645-1.855,3.59,3.59,0,0,1,1.43-1.242,4.108,4.108,0,0,1,1.926-.41,3.156,3.156,0,0,1,2.246.855,2.535,2.535,0,0,1,.715,2.137,5.445,5.445,0,0,1-1.727,3.156l-.719.727L94.254,15.82h5.492ZM102.3,4h2.875l-2.414,15.438H99.887l.188-1.187h1.461l2.039-13.062h-1.469Z" transform="translate(620 2610)" fill="#12263f"/><path d="M33.008,16.242a.905.905,0,0,1,.223-.625.848.848,0,0,1,.668-.25.874.874,0,0,1,.676.25.887.887,0,0,1,.23.625.839.839,0,0,1-.23.6.89.89,0,0,1-.676.242.8.8,0,0,1-.891-.844Zm.008-6.9a.905.905,0,0,1,.223-.625.848.848,0,0,1,.668-.25.874.874,0,0,1,.676.25.887.887,0,0,1,.23.625.839.839,0,0,1-.23.6.89.89,0,0,1-.676.242.8.8,0,0,1-.891-.844Zm12.539,6.164a3.465,3.465,0,0,1-1.613,1.238,6.517,6.517,0,0,1-2.41.41,4.674,4.674,0,0,1-2.469-.652,4.346,4.346,0,0,1-1.668-1.855,6.408,6.408,0,0,1-.605-2.789v-.992a5.982,5.982,0,0,1,1.2-3.984,4.179,4.179,0,0,1,3.371-1.414,4.316,4.316,0,0,1,2.867.91,3.965,3.965,0,0,1,1.328,2.582h-1.5A2.48,2.48,0,0,0,41.367,6.7a2.655,2.655,0,0,0-2.285,1.06,5.173,5.173,0,0,0-.785,3.069v.93a4.848,4.848,0,0,0,.875,3.046,2.836,2.836,0,0,0,2.367,1.13,5.228,5.228,0,0,0,1.477-.187,2.283,2.283,0,0,0,1.047-.631V12.563H41.43V11.336h4.125Zm4-2.961V17h-1.5V5.625h4.2a4.215,4.215,0,0,1,2.926.953A3.231,3.231,0,0,1,56.234,9.1,3.189,3.189,0,0,1,55.2,11.652a4.4,4.4,0,0,1-2.965.895Zm0-1.227h2.7a2.7,2.7,0,0,0,1.844-.567,2.075,2.075,0,0,0,.641-1.64,2.143,2.143,0,0,0-.641-1.628,2.525,2.525,0,0,0-1.758-.634H49.555Zm16.6-5.7v7.734a3.628,3.628,0,0,1-1.012,2.633,4.077,4.077,0,0,1-2.723,1.148l-.4.016a4.258,4.258,0,0,1-2.977-1.008,3.6,3.6,0,0,1-1.125-2.773V5.625h1.484v7.7a2.6,2.6,0,0,0,.68,1.918,3.111,3.111,0,0,0,3.887,0,2.6,2.6,0,0,0,.676-1.914V5.625Zm9.094-.437H73.758V18.25H75.25v1.188H72.3V4H75.25ZM81.1,17H79.648V7.367l-2.914,1.07V7.125L80.875,5.57H81.1Zm4.414-.758a.905.905,0,0,1,.223-.625.848.848,0,0,1,.668-.25.874.874,0,0,1,.676.25.887.887,0,0,1,.23.625.839.839,0,0,1-.23.6.89.89,0,0,1-.676.242.8.8,0,0,1-.891-.844Zm4.211,0a.905.905,0,0,1,.223-.625.848.848,0,0,1,.668-.25.874.874,0,0,1,.676.25.887.887,0,0,1,.23.625.839.839,0,0,1-.23.6.89.89,0,0,1-.676.242.8.8,0,0,1-.891-.844ZM101.211,17H93.758V15.961L97.7,11.586A9.354,9.354,0,0,0,98.9,9.973a2.693,2.693,0,0,0,.332-1.285A2.041,2.041,0,0,0,98.7,7.227a1.885,1.885,0,0,0-1.437-.57,2.232,2.232,0,0,0-1.676.613,2.343,2.343,0,0,0-.6,1.707H93.539a3.355,3.355,0,0,1,1.012-2.539,3.751,3.751,0,0,1,2.707-.969,3.6,3.6,0,0,1,2.508.832,2.838,2.838,0,0,1,.922,2.215q0,1.68-2.141,4L95.5,15.82h5.711Zm.656-13h2.953V19.438h-2.953V18.25h1.508V5.188h-1.508Z" transform="translate(1259 2610)" fill="#12263f"/><path d="M8.895,11.93a7.053,7.053,0,0,1-2.809-1.363,2.6,2.6,0,0,1-.879-2A2.751,2.751,0,0,1,6.281,6.348a4.269,4.269,0,0,1,2.793-.879,4.66,4.66,0,0,1,2.09.453,3.436,3.436,0,0,1,1.422,1.25,3.2,3.2,0,0,1,.5,1.742H11.582a2.08,2.08,0,0,0-.656-1.627A2.669,2.669,0,0,0,9.074,6.7a2.732,2.732,0,0,0-1.73.489,1.632,1.632,0,0,0-.621,1.358,1.468,1.468,0,0,0,.59,1.178,5.785,5.785,0,0,0,2.008.88,9.316,9.316,0,0,1,2.219.88A3.367,3.367,0,0,1,12.727,12.6a2.861,2.861,0,0,1,.387,1.508,2.658,2.658,0,0,1-1.078,2.215,4.6,4.6,0,0,1-2.883.832,5.347,5.347,0,0,1-2.187-.449A3.681,3.681,0,0,1,5.4,15.477,3,3,0,0,1,4.848,13.7H6.355a1.959,1.959,0,0,0,.762,1.629,3.207,3.207,0,0,0,2.035.6,2.948,2.948,0,0,0,1.82-.484,1.573,1.573,0,0,0,.633-1.32,1.545,1.545,0,0,0-.586-1.293A6.755,6.755,0,0,0,8.895,11.93Zm9.422,5.227a3.693,3.693,0,0,1-2.8-1.129,4.19,4.19,0,0,1-1.078-3.02v-.266a5.073,5.073,0,0,1,.48-2.246,3.748,3.748,0,0,1,1.344-1.547,3.378,3.378,0,0,1,1.871-.559A3.166,3.166,0,0,1,20.7,9.477a4.7,4.7,0,0,1,.914,3.109v.6H15.887a3,3,0,0,0,.73,2.02,2.3,2.3,0,0,0,1.777.77,2.517,2.517,0,0,0,1.3-.312,3.259,3.259,0,0,0,.93-.828l.883.688A3.55,3.55,0,0,1,18.316,17.156Zm-.18-7.578a1.928,1.928,0,0,0-1.469.637A3.1,3.1,0,0,0,15.934,12h4.234v-.109a2.753,2.753,0,0,0-.594-1.707A1.815,1.815,0,0,0,18.137,9.578Zm9.234.266a4.331,4.331,0,0,0-.711-.055A1.9,1.9,0,0,0,24.73,11v6H23.285V8.547h1.406l.023.977A2.251,2.251,0,0,1,26.73,8.391a1.477,1.477,0,0,1,.641.109ZM30.27,17H28.824V8.547H30.27ZM28.707,6.3a.863.863,0,0,1,.215-.594.807.807,0,0,1,.637-.242.819.819,0,0,1,.641.242.854.854,0,0,1,.219.594.826.826,0,0,1-.219.586.834.834,0,0,1-.641.234.821.821,0,0,1-.637-.234A.834.834,0,0,1,28.707,6.3ZM37.8,17a3.036,3.036,0,0,1-.2-.891,3.225,3.225,0,0,1-2.406,1.047,2.984,2.984,0,0,1-2.051-.707,2.287,2.287,0,0,1-.8-1.793,2.39,2.39,0,0,1,1-2.051,4.733,4.733,0,0,1,2.824-.73h1.406v-.664A1.623,1.623,0,0,0,37.121,10a1.821,1.821,0,0,0-1.336-.449,2.107,2.107,0,0,0-1.3.391,1.151,1.151,0,0,0-.523.945H32.512a2,2,0,0,1,.449-1.223,3.066,3.066,0,0,1,1.219-.934,4.1,4.1,0,0,1,1.691-.344,3.342,3.342,0,0,1,2.289.73,2.635,2.635,0,0,1,.859,2.012v3.891a4.757,4.757,0,0,0,.3,1.852V17Zm-2.4-1.1a2.54,2.54,0,0,0,1.289-.352,2.127,2.127,0,0,0,.883-.914V12.9H36.441q-2.656,0-2.656,1.555a1.316,1.316,0,0,0,.453,1.063A1.742,1.742,0,0,0,35.4,15.9ZM42.855,17H41.41V5h1.445ZM52.121,5.188H50.629V18.25h1.492v1.188H49.176V4h2.945ZM57.973,17H56.52V7.367l-2.914,1.07V7.125L57.746,5.57h.227Zm4.414-.758a.905.905,0,0,1,.223-.625.848.848,0,0,1,.668-.25.874.874,0,0,1,.676.25.887.887,0,0,1,.23.625.839.839,0,0,1-.23.6.89.89,0,0,1-.676.242.8.8,0,0,1-.891-.844Zm4.211,0a.905.905,0,0,1,.223-.625.848.848,0,0,1,.668-.25.874.874,0,0,1,.676.25.887.887,0,0,1,.23.625.839.839,0,0,1-.23.6.89.89,0,0,1-.676.242.8.8,0,0,1-.891-.844Zm5.664-6.926-2.359-.7.359-1.178,2.359.874-.07-2.685h1.2l-.078,2.724,2.32-.859.359,1.186-2.4.71L75.5,11.5l-.969.734-1.453-2.25-1.406,2.2-.977-.711ZM80.605,4h2.953V19.438H80.605V18.25h1.508V5.188H80.605Z" transform="translate(965 2428)" fill="#12263f"/><path d="M16.371,12.4H13.7V17H12.191V5.625h3.766a4.457,4.457,0,0,1,2.957.875,3.148,3.148,0,0,1,1.035,2.547,3.062,3.062,0,0,1-.574,1.852,3.428,3.428,0,0,1-1.6,1.18l2.672,4.828V17H18.84ZM13.7,11.172H16a2.6,2.6,0,0,0,1.777-.579,1.959,1.959,0,0,0,.66-1.55,2.062,2.062,0,0,0-.629-1.62A2.663,2.663,0,0,0,16,6.852H13.7ZM26.816,5.625h1.508V13.68a3.336,3.336,0,0,1-.98,2.555,3.66,3.66,0,0,1-2.613.922,3.762,3.762,0,0,1-2.641-.867,3.132,3.132,0,0,1-.945-2.43h1.5a1.885,1.885,0,0,0,2.086,2.07,2.012,2.012,0,0,0,1.5-.586,2.27,2.27,0,0,0,.582-1.641Zm9.789,7.555h1.578v1.18H36.605V17H35.152V14.359h-5.18v-.852l5.094-7.883h1.539Zm-4.992,0h3.539V7.6l-.172.313ZM40.152,11.3l.578-5.672h5.828V6.961h-4.6l-.344,3.1a3.671,3.671,0,0,1,1.9-.492A3.138,3.138,0,0,1,45.98,10.6a4.026,4.026,0,0,1,.914,2.777,3.886,3.886,0,0,1-.949,2.77,3.46,3.46,0,0,1-2.652,1.012,3.6,3.6,0,0,1-2.461-.836,3.337,3.337,0,0,1-1.086-2.312h1.367a2.3,2.3,0,0,0,.7,1.473,2.162,2.162,0,0,0,1.484.5,1.95,1.95,0,0,0,1.582-.687,2.874,2.874,0,0,0,.574-1.9,2.638,2.638,0,0,0-.621-1.832,2.113,2.113,0,0,0-1.652-.691,2.383,2.383,0,0,0-1.484.414l-.383.313Zm21.055,4.211a3.465,3.465,0,0,1-1.613,1.238,6.517,6.517,0,0,1-2.41.41,4.674,4.674,0,0,1-2.469-.652,4.346,4.346,0,0,1-1.668-1.855,6.408,6.408,0,0,1-.605-2.789v-.992a5.982,5.982,0,0,1,1.2-3.984,4.179,4.179,0,0,1,3.371-1.414,4.316,4.316,0,0,1,2.867.91,3.965,3.965,0,0,1,1.328,2.582h-1.5A2.48,2.48,0,0,0,57.02,6.7a2.655,2.655,0,0,0-2.285,1.06,5.173,5.173,0,0,0-.785,3.069v.93a4.848,4.848,0,0,0,.875,3.046,2.836,2.836,0,0,0,2.367,1.13,5.228,5.228,0,0,0,1.477-.187,2.283,2.283,0,0,0,1.047-.631V12.563H57.082V11.336h4.125Zm9.43-2.641a5.026,5.026,0,0,1-.891,3.113,2.846,2.846,0,0,1-2.391,1.176,2.947,2.947,0,0,1-2.477-1.133l-.07.977H63.48V5h1.445V9.477A2.93,2.93,0,0,1,67.34,8.391a2.863,2.863,0,0,1,2.418,1.164,5.177,5.177,0,0,1,.879,3.188ZM69.191,12.7a3.906,3.906,0,0,0-.57-2.281,1.888,1.888,0,0,0-1.641-.8,2.122,2.122,0,0,0-2.055,1.328V14.6A2.181,2.181,0,0,0,67,15.93a1.878,1.878,0,0,0,1.617-.8A4.153,4.153,0,0,0,69.191,12.7Zm9.922-.961h-4.93v4.031H79.91V17H72.684V5.625h7.148V6.852H74.184v3.664h4.93ZM92.465,5.188H90.973V18.25h1.492v1.188H89.52V4h2.945ZM98.316,17H96.863V7.367l-2.914,1.07V7.125L98.09,5.57h.227Zm4.414-.758a.905.905,0,0,1,.223-.625.848.848,0,0,1,.668-.25.874.874,0,0,1,.676.25.887.887,0,0,1,.23.625.839.839,0,0,1-.23.6.89.89,0,0,1-.676.242.8.8,0,0,1-.891-.844Zm4.211,0a.905.905,0,0,1,.223-.625.848.848,0,0,1,.668-.25.874.874,0,0,1,.676.25.887.887,0,0,1,.23.625.839.839,0,0,1-.23.6.89.89,0,0,1-.676.242.8.8,0,0,1-.891-.844Zm5.664-6.926-2.359-.7.359-1.178,2.359.874-.07-2.685h1.2l-.078,2.724,2.32-.859.359,1.186-2.4.71L115.84,11.5l-.969.734-1.453-2.25-1.406,2.2-.977-.711ZM120.949,4H123.9V19.438h-2.953V18.25h1.508V5.188h-1.508Z" transform="translate(941 2739)" fill="#12263f"/><path d="M18.563,5.625v7.734a3.628,3.628,0,0,1-1.012,2.633,4.077,4.077,0,0,1-2.723,1.148l-.4.016a4.258,4.258,0,0,1-2.977-1.008,3.6,3.6,0,0,1-1.125-2.773V5.625h1.484v7.7a2.6,2.6,0,0,0,.68,1.918,2.612,2.612,0,0,0,1.938.684,2.63,2.63,0,0,0,1.949-.68,2.6,2.6,0,0,0,.676-1.914V5.625Zm5.719,6.3a7.053,7.053,0,0,1-2.809-1.363,2.6,2.6,0,0,1-.879-2,2.751,2.751,0,0,1,1.074-2.223,4.269,4.269,0,0,1,2.793-.879,4.66,4.66,0,0,1,2.09.453,3.436,3.436,0,0,1,1.422,1.25,3.2,3.2,0,0,1,.5,1.742H26.969a2.08,2.08,0,0,0-.656-1.627A2.669,2.669,0,0,0,24.461,6.7a2.732,2.732,0,0,0-1.73.489,1.632,1.632,0,0,0-.621,1.358A1.468,1.468,0,0,0,22.7,9.72a5.785,5.785,0,0,0,2.008.88,9.316,9.316,0,0,1,2.219.88A3.367,3.367,0,0,1,28.113,12.6a2.861,2.861,0,0,1,.387,1.508,2.658,2.658,0,0,1-1.078,2.215,4.6,4.6,0,0,1-2.883.832,5.347,5.347,0,0,1-2.187-.449,3.681,3.681,0,0,1-1.566-1.23,3,3,0,0,1-.551-1.773h1.508a1.959,1.959,0,0,0,.762,1.629,3.207,3.207,0,0,0,2.035.6,2.948,2.948,0,0,0,1.82-.484,1.573,1.573,0,0,0,.633-1.32,1.545,1.545,0,0,0-.586-1.293A6.755,6.755,0,0,0,24.281,11.93ZM30.422,17V5.625h3.719a4.317,4.317,0,0,1,2.785.766,2.759,2.759,0,0,1,.934,2.266,2.31,2.31,0,0,1-.453,1.41,2.937,2.937,0,0,1-1.234.949,2.638,2.638,0,0,1,1.457.98,2.814,2.814,0,0,1,.535,1.723,3.042,3.042,0,0,1-.992,2.406,4.1,4.1,0,0,1-2.8.875Zm1.5-5.32v4.094H34.4a2.385,2.385,0,0,0,1.652-.543,1.907,1.907,0,0,0,.605-1.5q0-2.055-2.234-2.055Zm0-1.2h2.266a2.375,2.375,0,0,0,1.574-.493,1.654,1.654,0,0,0,.59-1.339A1.626,1.626,0,0,0,35.8,7.278a2.686,2.686,0,0,0-1.664-.427H31.922ZM47.109,5.188H45.617V18.25h1.492v1.188H44.164V4h2.945ZM52.961,17H51.508V7.367l-2.914,1.07V7.125L52.734,5.57h.227Zm4.414-.758a.905.905,0,0,1,.223-.625.848.848,0,0,1,.668-.25.874.874,0,0,1,.676.25.887.887,0,0,1,.23.625.839.839,0,0,1-.23.6.89.89,0,0,1-.676.242.8.8,0,0,1-.891-.844Zm4.211,0a.905.905,0,0,1,.223-.625.848.848,0,0,1,.668-.25.874.874,0,0,1,.676.25.887.887,0,0,1,.23.625.839.839,0,0,1-.23.6.89.89,0,0,1-.676.242.8.8,0,0,1-.891-.844ZM67.25,9.316l-2.359-.7.359-1.178,2.359.874-.07-2.685h1.2l-.078,2.724,2.32-.859.359,1.186-2.4.71L70.484,11.5l-.969.734-1.453-2.25-1.406,2.2-.977-.711ZM75.594,4h2.953V19.438H75.594V18.25H77.1V5.188H75.594Z" transform="translate(965 2472)" fill="#12263f"/><path d="M29.121,11.93a7.053,7.053,0,0,1-2.809-1.363,2.6,2.6,0,0,1-.879-2,2.751,2.751,0,0,1,1.074-2.223A4.269,4.269,0,0,1,29.3,5.469a4.66,4.66,0,0,1,2.09.453,3.436,3.436,0,0,1,1.422,1.25,3.2,3.2,0,0,1,.5,1.742H31.809a2.08,2.08,0,0,0-.656-1.627A2.669,2.669,0,0,0,29.3,6.7a2.732,2.732,0,0,0-1.73.489,1.632,1.632,0,0,0-.621,1.358,1.468,1.468,0,0,0,.59,1.178,5.785,5.785,0,0,0,2.008.88,9.316,9.316,0,0,1,2.219.88A3.367,3.367,0,0,1,32.953,12.6a2.861,2.861,0,0,1,.387,1.508,2.658,2.658,0,0,1-1.078,2.215,4.6,4.6,0,0,1-2.883.832,5.347,5.347,0,0,1-2.187-.449,3.681,3.681,0,0,1-1.566-1.23,3,3,0,0,1-.551-1.773h1.508a1.959,1.959,0,0,0,.762,1.629,3.207,3.207,0,0,0,2.035.6,2.948,2.948,0,0,0,1.82-.484,1.573,1.573,0,0,0,.633-1.32,1.545,1.545,0,0,0-.586-1.293A6.755,6.755,0,0,0,29.121,11.93Zm12.414.047H36.762V17h-1.5V5.625h7.047V6.852H36.762v3.9h4.773Zm4.07.57V17h-1.5V5.625h4.2a4.215,4.215,0,0,1,2.926.953A3.231,3.231,0,0,1,52.285,9.1a3.189,3.189,0,0,1-1.035,2.551,4.4,4.4,0,0,1-2.965.895Zm0-1.227h2.7a2.7,2.7,0,0,0,1.844-.567,2.075,2.075,0,0,0,.641-1.64,2.143,2.143,0,0,0-.641-1.628,2.525,2.525,0,0,0-1.758-.634H45.605ZM61.277,17H53.824V15.961l3.938-4.375a9.355,9.355,0,0,0,1.207-1.613A2.693,2.693,0,0,0,59.3,8.688a2.041,2.041,0,0,0-.539-1.461,1.885,1.885,0,0,0-1.437-.57,2.232,2.232,0,0,0-1.676.613,2.343,2.343,0,0,0-.6,1.707H53.605a3.355,3.355,0,0,1,1.012-2.539,3.751,3.751,0,0,1,2.707-.969,3.6,3.6,0,0,1,2.508.832,2.838,2.838,0,0,1,.922,2.215q0,1.68-2.141,4l-3.047,3.3h5.711Zm8.43-8.406a2.641,2.641,0,0,1-.449,1.516,3.057,3.057,0,0,1-1.215,1.039,3.26,3.26,0,0,1,1.41,1.117,2.811,2.811,0,0,1,.52,1.664,2.972,2.972,0,0,1-1,2.352,4.367,4.367,0,0,1-5.25,0,2.986,2.986,0,0,1-.988-2.348,2.9,2.9,0,0,1,.5-1.664,3.136,3.136,0,0,1,1.395-1.125,2.981,2.981,0,0,1-1.2-1.039A2.679,2.679,0,0,1,63,8.594a2.94,2.94,0,0,1,.922-2.281,3.915,3.915,0,0,1,4.855,0A2.934,2.934,0,0,1,69.707,8.594Zm-1.18,5.3a2.1,2.1,0,0,0-.605-1.555,2.147,2.147,0,0,0-1.582-.6A2.034,2.034,0,0,0,64.184,13.9a2.019,2.019,0,0,0,.574,1.523,2.565,2.565,0,0,0,3.191,0A2.014,2.014,0,0,0,68.527,13.9ZM66.355,6.656a1.865,1.865,0,0,0-1.379.527,1.937,1.937,0,0,0-.527,1.434,1.928,1.928,0,0,0,.52,1.4,2.064,2.064,0,0,0,2.773,0,1.928,1.928,0,0,0,.52-1.4A1.929,1.929,0,0,0,67.723,7.2,1.839,1.839,0,0,0,66.355,6.656ZM78.895,5.188H77.4V18.25h1.492v1.188H75.949V4h2.945ZM84.746,17H83.293V7.367l-2.914,1.07V7.125L84.52,5.57h.227Zm4.414-.758a.905.905,0,0,1,.223-.625.848.848,0,0,1,.668-.25.874.874,0,0,1,.676.25.887.887,0,0,1,.23.625.839.839,0,0,1-.23.6.89.89,0,0,1-.676.242.8.8,0,0,1-.891-.844Zm4.211,0a.905.905,0,0,1,.223-.625.848.848,0,0,1,.668-.25.874.874,0,0,1,.676.25.887.887,0,0,1,.23.625.839.839,0,0,1-.23.6.89.89,0,0,1-.676.242.8.8,0,0,1-.891-.844Zm5.664-6.926-2.359-.7.359-1.178,2.359.874-.07-2.685h1.2l-.078,2.724,2.32-.859.359,1.186-2.4.71L102.27,11.5l-.969.734-1.453-2.25-1.406,2.2-.977-.711ZM107.379,4h2.953V19.438h-2.953V18.25h1.508V5.188h-1.508Z" transform="translate(941 2783)" fill="#12263f"/><path d="M13.477,15.008l3.25-9.383h1.641L14.148,17H12.82L8.609,5.625h1.633Zm14.813.5a3.465,3.465,0,0,1-1.613,1.238,6.517,6.517,0,0,1-2.41.41A4.674,4.674,0,0,1,21.8,16.5a4.346,4.346,0,0,1-1.668-1.855,6.408,6.408,0,0,1-.605-2.789v-.992a5.982,5.982,0,0,1,1.2-3.984,4.179,4.179,0,0,1,3.371-1.414,4.316,4.316,0,0,1,2.867.91,3.965,3.965,0,0,1,1.328,2.582h-1.5A2.48,2.48,0,0,0,24.1,6.7a2.655,2.655,0,0,0-2.285,1.06,5.173,5.173,0,0,0-.785,3.069v.93a4.848,4.848,0,0,0,.875,3.046,2.836,2.836,0,0,0,2.367,1.13,5.228,5.228,0,0,0,1.477-.187,2.283,2.283,0,0,0,1.047-.631V12.563H24.164V11.336h4.125Zm8.781-1.484H32.3L31.234,17H29.688L34.031,5.625h1.313L39.7,17H38.156ZM32.758,12.8h3.867l-1.937-5.32Zm15.2-7.609H46.461V18.25h1.492v1.188H45.008V4h2.945ZM53.8,17H52.352V7.367l-2.914,1.07V7.125L53.578,5.57H53.8Zm4.414-.758a.905.905,0,0,1,.223-.625.848.848,0,0,1,.668-.25.874.874,0,0,1,.676.25.887.887,0,0,1,.23.625.839.839,0,0,1-.23.6.89.89,0,0,1-.676.242.8.8,0,0,1-.891-.844Zm4.211,0a.905.905,0,0,1,.223-.625.848.848,0,0,1,.668-.25.874.874,0,0,1,.676.25.887.887,0,0,1,.23.625.839.839,0,0,1-.23.6.89.89,0,0,1-.676.242.8.8,0,0,1-.891-.844Zm5.664-6.926-2.359-.7.359-1.178,2.359.874-.07-2.685h1.2L69.5,8.349l2.32-.859.359,1.186-2.4.71L71.328,11.5l-.969.734-1.453-2.25-1.406,2.2-.977-.711ZM76.438,4h2.953V19.438H76.438V18.25h1.508V5.188H76.438Z" transform="translate(965 2516)" fill="#12263f"/><path d="M16.453,12.4H13.781V17H12.273V5.625h3.766A4.457,4.457,0,0,1,19,6.5a3.148,3.148,0,0,1,1.035,2.547,3.062,3.062,0,0,1-.574,1.852,3.428,3.428,0,0,1-1.6,1.18l2.672,4.828V17H18.922Zm-2.672-1.227h2.3a2.6,2.6,0,0,0,1.777-.579,1.959,1.959,0,0,0,.66-1.55,2.062,2.062,0,0,0-.629-1.62,2.663,2.663,0,0,0-1.816-.571h-2.3ZM26.9,5.625h1.508V13.68a3.336,3.336,0,0,1-.98,2.555,3.66,3.66,0,0,1-2.613.922,3.762,3.762,0,0,1-2.641-.867,3.132,3.132,0,0,1-.945-2.43h1.5a1.885,1.885,0,0,0,2.086,2.07,2.012,2.012,0,0,0,1.5-.586A2.27,2.27,0,0,0,26.9,13.7Zm9.789,7.555h1.578v1.18H36.688V17H35.234V14.359h-5.18v-.852l5.094-7.883h1.539Zm-4.992,0h3.539V7.6l-.172.313ZM40.234,11.3l.578-5.672h5.828V6.961h-4.6l-.344,3.1a3.671,3.671,0,0,1,1.9-.492A3.138,3.138,0,0,1,46.063,10.6a4.026,4.026,0,0,1,.914,2.777,3.886,3.886,0,0,1-.949,2.77,3.46,3.46,0,0,1-2.652,1.012,3.6,3.6,0,0,1-2.461-.836,3.337,3.337,0,0,1-1.086-2.312H41.2a2.3,2.3,0,0,0,.7,1.473,2.162,2.162,0,0,0,1.484.5,1.95,1.95,0,0,0,1.582-.687,2.874,2.874,0,0,0,.574-1.9,2.638,2.638,0,0,0-.621-1.832,2.113,2.113,0,0,0-1.652-.691,2.383,2.383,0,0,0-1.484.414l-.383.313ZM54.5,17H53V5.625h1.5Zm4.242-4.453V17h-1.5V5.625h4.2a4.215,4.215,0,0,1,2.926.953A3.231,3.231,0,0,1,65.422,9.1a3.189,3.189,0,0,1-1.035,2.551,4.4,4.4,0,0,1-2.965.895Zm0-1.227h2.7a2.7,2.7,0,0,0,1.844-.567,2.075,2.075,0,0,0,.641-1.64,2.143,2.143,0,0,0-.641-1.628,2.525,2.525,0,0,0-1.758-.634H58.742Zm10.531-5.7,3.719,9.281,3.719-9.281h1.945V17h-1.5V12.57L77.3,7.789,73.563,17H72.414L68.688,7.813l.148,4.758V17h-1.5V5.625ZM82.914,17h-1.5V5.625h1.5ZM92.383,5.188H90.891V18.25h1.492v1.188H89.438V4h2.945ZM98.234,17H96.781V7.367l-2.914,1.07V7.125L98.008,5.57h.227Zm4.414-.758a.905.905,0,0,1,.223-.625.848.848,0,0,1,.668-.25.874.874,0,0,1,.676.25.887.887,0,0,1,.23.625.839.839,0,0,1-.23.6.89.89,0,0,1-.676.242.8.8,0,0,1-.891-.844Zm4.211,0a.905.905,0,0,1,.223-.625.848.848,0,0,1,.668-.25.874.874,0,0,1,.676.25.887.887,0,0,1,.23.625.839.839,0,0,1-.23.6.89.89,0,0,1-.676.242.8.8,0,0,1-.891-.844Zm5.664-6.926-2.359-.7.359-1.178,2.359.874-.07-2.685h1.2l-.078,2.724,2.32-.859.359,1.186-2.4.71,1.547,2.117-.969.734-1.453-2.25-1.406,2.2-.977-.711ZM120.867,4h2.953V19.438h-2.953V18.25h1.508V5.188h-1.508Z" transform="translate(941 2827)" fill="#12263f"/><path d="M189,.5H0v-1H189Z" transform="translate(915 2413)" fill="#12263f"/><path d="M189,.5H0v-1H189Z" transform="translate(915 2724)" fill="#12263f"/><path d="M1,1V34H105V1H1M0,0H106V35H0Z" transform="translate(957 2421)" fill="#12263f"/><path d="M1,1V34H153V1H1M0,0H154V35H0Z" transform="translate(933 2732)" fill="#12263f"/><path d="M1,1V34H105V1H1M0,0H106V35H0Z" transform="translate(957 2464)" fill="#12263f"/><path d="M1,1V34H153V1H1M0,0H154V35H0Z" transform="translate(933 2775)" fill="#12263f"/><path d="M1,1V34H105V1H1M0,0H106V35H0Z" transform="translate(957 2508)" fill="#12263f"/><path d="M1,1V34H153V1H1M0,0H154V35H0Z" transform="translate(933 2819)" fill="#12263f"/><path d="M-5101.1-8902H-5188v-1h85.9v-436H-5188v-1h86.9Z" transform="translate(5947 11732)" fill="#12263f"/><path d="M-5101.6-8902h-86.9v-438h86.9v1h-85.9v436h85.9Z" transform="translate(6360 11732)" fill="#12263f"/><rect width="14" height="14" transform="translate(758 2386)" fill="#fff"/><path d="M1,1V13H13V1H1M0,0H14V14H0Z" transform="translate(758 2386)" fill="#12263f"/><rect width="14" height="14" transform="translate(1245.4 2386)" fill="#fff"/><path d="M1,1V13H13V1H1M0,0H14V14H0Z" transform="translate(1245.4 2386)" fill="#12263f"/><rect width="14" height="14" transform="translate(758 2453)" fill="#fff"/><path d="M1,1V13H13V1H1M0,0H14V14H0Z" transform="translate(758 2453)" fill="#12263f"/><rect width="14" height="14" transform="translate(1245.4 2453)" fill="#fff"/><path d="M1,1V13H13V1H1M0,0H14V14H0Z" transform="translate(1245.4 2453)" fill="#12263f"/><rect width="14" height="14" transform="translate(758 2613)" fill="#fff"/><path d="M1,1V13H13V1H1M0,0H14V14H0Z" transform="translate(758 2613)" fill="#12263f"/><rect width="14" height="14" transform="translate(1245.4 2613)" fill="#fff"/><path d="M1,1V13H13V1H1M0,0H14V14H0Z" transform="translate(1245.4 2613)" fill="#12263f"/><rect width="14" height="14" transform="translate(758 2747)" fill="#fff"/><path d="M1,1V13H13V1H1M0,0H14V14H0Z" transform="translate(758 2747)" fill="#12263f"/><rect width="14" height="14" transform="translate(1245.4 2747)" fill="#fff"/><path d="M1,1V13H13V1H1M0,0H14V14H0Z" transform="translate(1245.4 2747)" fill="#12263f"/><rect width="14" height="14" transform="translate(758 2823)" fill="#fff"/><path d="M1,1V13H13V1H1M0,0H14V14H0Z" transform="translate(758 2823)" fill="#12263f"/><rect width="14" height="14" transform="translate(1245.4 2823)" fill="#fff"/><path d="M1,1V13H13V1H1M0,0H14V14H0Z" transform="translate(1245.4 2823)" fill="#12263f"/><rect width="14" height="14" transform="translate(1003 2549)" fill="#fff"/><path d="M1,1V13H13V1H1M0,0H14V14H0Z" transform="translate(1003 2549)" fill="#12263f"/><rect width="14" height="14" transform="translate(1003 2670)" fill="#fff"/><path d="M1,1V13H13V1H1M0,0H14V14H0Z" transform="translate(1003 2670)" fill="#12263f"/><path d="M74,.5H0v-1H74Z" transform="translate(771.4 2460)" fill="#12263f"/><path d="M74,.5H0v-1H74Z" transform="translate(1172 2460)" fill="#12263f"/><path d="M144.1.5H0v-1H144.1Z" transform="translate(771.4 2620)" fill="#12263f"/><path d="M141,.5H0v-1H141Z" transform="translate(1105 2620)" fill="#12263f"/><path d="M74,.5H0v-1H74Z" transform="translate(771.4 2754)" fill="#12263f"/><path d="M74,.5H0v-1H74Z" transform="translate(1172 2754)" fill="#12263f"/><path d="M-4937-9132.132h-1V-9169h1Z" transform="translate(5947 11732)" fill="#12263f"/><path d="M-4937-9141h-1v-28h1Z" transform="translate(5947 11811)" fill="#12263f"/></g></svg>